<?xml version="1.0" encoding="utf-8"?>
<!-- Generator: Adobe Illustrator 23.0.2, SVG Export Plug-In . SVG Version: 6.00 Build 0)  -->
<svg version="1.1" id="Layer_1" xmlns="http://www.w3.org/2000/svg" xmlns:xlink="http://www.w3.org/1999/xlink" x="0px" y="0px"
	 viewBox="0 0 476.96 102.98" style="enable-background:new 0 0 476.96 102.98;" xml:space="preserve">
<style type="text/css">
	.st0{fill:#FFFFFF;}
</style>
<title>logoum</title>
<g>
	<path class="st0" d="M166.65,66.22c-0.22-0.5-1.06-2.37-0.38-3.09v-0.34h-6.76v0.47c1.84,0.15,3.62,0.87,3.43,2.92l-0.41,4.24
		l-1.15,8.75c-0.43,2.53-0.72,3.86-3.49,4.33v0.47h8.69v-0.5c-3.77-0.62-3.8-2-3.74-3.24c0.22-4.82,0.47-8.28,1-13h0.06l7.39,16.76
		h0.34l7.91-17.52h0.06l0.84,13.61c0.16,2.74-1.37,3-3.77,3.39v0.47h10.25v-0.47c-3.33-0.56-3.33-1.25-3.67-5.58l-0.69-11.33
		c-0.12-2.18,1.09-2.93,3.08-3.33v-0.47h-6.83l-0.06,0.5c0.69,0.46,0.25,2-0.53,3.73l-5.66,12.48L166.65,66.22z"/>
	<path class="st0" d="M198.44,65.67c-5.53,0-9.65,3.65-9.65,9.28s4.1,9.34,9.68,9.34s9.67-3.63,9.67-9.31
		C208.14,70.27,205.21,65.67,198.44,65.67z M198.23,66.3c4,0,6.77,4.45,6.85,9.13c0,3.78-1.93,8.22-6.3,8.22
		c-4.76,0-6.93-5.23-6.93-9.33C191.81,70.75,193.68,66.3,198.23,66.3z"/>
	<path class="st0" d="M214.35,65.99h-4.36v0.39c3.36,0.74,3.78,1.78,3.78,4.42v4c0,6,0.14,8.44-3.43,8.81v0.4h7.9v-0.4
		c-3.83-0.77-3.67-2.12-3.67-8.67v-4.87c4.47,4.82,9.17,9.44,13.4,14.44l0.35-0.08c-0.13-5.76-0.27-12.14,0.1-15
		c0.22-1.71,0.56-2.72,2.38-3v-0.39h-7.22v0.39c3,0.53,3.68,1.27,3.71,3.79l0.13,9.65L214.35,65.99z"/>
	<path class="st0" d="M247.93,65.4c-0.4,0.49-1.03,0.71-1.64,0.59h-12.11c-0.61,0.12-1.24-0.1-1.64-0.59l-0.26-0.23h-0.22
		l-0.36,4.94l0.36,0.08c0.93-3.28,2.38-3.41,5.43-3.41h1.58V79c0,3.28-0.16,4.15-3.7,4.57v0.4h9.73v-0.4
		c-3.54-0.42-3.7-1.29-3.7-4.57V66.78h1.58c3.05,0,4.5,0.13,5.43,3.41l0.37-0.08l-0.37-4.94h-0.21L247.93,65.4z"/>
	<path class="st0" d="M250.04,83.97h14.71c0.58-1.69,0.88-3.46,0.9-5.24h-0.4c-0.66,3.33-2.3,4.6-5.63,4.6c-4.34,0-4-2.17-4-3.73
		v-4.33h2.75c2,0,3.44,0,3.78,2.35h0.4v-5.89h-0.4c-0.29,2.27-1.8,2.43-3.78,2.43h-2.75v-7.54h2.57c2.67,0,5.13,0,5.31,3.44h0.4
		l0.32-4.07h-14.18v0.39c3.18,0.43,3.2,1.22,3.28,3.94v9.31c-0.08,2.73-0.1,3.52-3.28,3.94V83.97z"/>
	<path class="st0" d="M274.48,68.9c-0.18-0.43-0.9-2-0.31-2.62v-0.29h-5.71v0.39c1.56,0.14,3.07,0.74,2.91,2.49l-0.35,3.59l-1,7.44
		c-0.36,2.14-0.6,3.27-3,3.67v0.4h7.38v-0.4c-3.2-0.53-3.22-1.72-3.17-2.75c0.18-4.1,0.39-7,0.82-11.08h0.05l6.27,14.23h0.29
		l6.74-14.84l0,0l0.72,11.56c0.13,2.33-1.16,2.57-3.2,2.88v0.4h8.7v-0.4c-2.83-0.47-2.83-1.06-3.12-4.73l-0.58-9.63
		c-0.11-1.85,0.92-2.48,2.61-2.83v-0.39h-5.71l-0.06,0.42c0.59,0.4,0.22,1.72-0.44,3.17l-4.79,10.53L274.48,68.9z"/>
	<path class="st0" d="M303.14,65.67c-5.53,0-9.66,3.65-9.66,9.28s4.1,9.34,9.68,9.34s9.68-3.63,9.68-9.31
		C312.82,70.27,309.9,65.67,303.14,65.67z M302.92,66.3c4.05,0,6.77,4.45,6.85,9.13c0,3.78-1.93,8.22-6.29,8.22
		c-4.76,0-6.93-5.23-6.93-9.33C296.55,70.75,298.39,66.3,302.92,66.3z"/>
	<path class="st0" d="M320.67,66.47c2.77,0,5.5,1.21,5.5,4.31c0,2.93-3,4.1-5.5,4.13V66.47z M318.35,79.61
		c-0.08,2.73-0.11,3.52-3.28,3.94v0.4h9.28v-0.4c-3.62-0.5-3.67-1-3.67-3.94v-4.24c1.85,0.32,2.8-0.31,3.86,1.88
		c0.97,1.93,2.2,3.71,3.67,5.29c1.53,1.59,3.6,1.51,6.4,1.64l0.08-0.4c-4.36-0.9-6.9-5.44-8.94-9l-0.13-0.18
		c1.9-0.85,3.28-2.12,3.28-4.34c0-1.27-0.53-4.52-7.19-4.31l-6.45,0.21v0.38c3,0.26,3.09,0.87,3.09,4.91L318.35,79.61z"/>
	<path class="st0" d="M333.61,83.97h14.7c0.58-1.69,0.88-3.46,0.9-5.24h-0.39c-0.66,3.33-2.3,4.6-5.63,4.6c-4.34,0-4-2.17-4-3.73
		v-4.33h2.75c2,0,3.44,0,3.78,2.35h0.4v-5.89h-0.4c-0.29,2.27-1.8,2.43-3.78,2.43h-2.75v-7.54h2.63c2.67,0,5.13,0,5.31,3.44h0.4
		l0.31-4.07h-14.23v0.39c3.17,0.43,3.2,1.22,3.27,3.94v9.31c-0.07,2.73-0.1,3.52-3.27,3.94V83.97z"/>
	<path class="st0" d="M351.05,83.97h14.77l1.51-4.92l-0.34-0.16c-2,3.39-2.7,4.63-6.72,4.34l-3.22-0.24c-0.33-1.31-0.47-2.65-0.4-4
		v-8.68c0-2.72,0.1-3.51,3.28-3.94v-0.39h-8.89v0.39c3.18,0.43,3.2,1.22,3.28,3.94v9.31c-0.08,2.73-0.1,3.52-3.28,3.94L351.05,83.97
		z"/>
	<path class="st0" d="M378.23,65.67c-5.52,0-9.65,3.65-9.65,9.28s4.1,9.34,9.68,9.34s9.68-3.63,9.68-9.31
		C387.93,70.27,384.99,65.67,378.23,65.67z M378.02,66.3c4.05,0,6.77,4.45,6.85,9.13c0,3.78-1.93,8.22-6.29,8.22
		c-4.76,0-6.93-5.23-6.93-9.33C371.64,70.75,373.46,66.3,378.02,66.3z"/>
	<path class="st0" d="M400.96,66.67c-1.18-0.65-2.51-0.99-3.86-1c-2.83,0-5.9,2-5.9,5.05c0,5.29,8.09,4.87,8.09,9.58
		c0,1.76-1.42,3.18-3.18,3.18c-0.1,0-0.2,0-0.3-0.01c-2.91,0-4.67-2.51-5.34-5.05h-0.47l0.76,4.5c1.4,0.88,3.01,1.35,4.66,1.35
		c3,0,6.42-1.78,6.42-5.19c0-5.34-8.33-5.18-8.33-9.76c0.01-1.62,1.34-2.92,2.95-2.9c0.05,0,0.1,0,0.15,0c2.62,0,3.3,2.06,3.73,4.2
		h0.42L400.96,66.67z"/>
	<path class="st0" d="M173.93,32.47v0.47c4.36,0.4,4.68,2.21,4.68,6.16v3.27c0,3.8,0.65,10.22-6.08,10.22c-8.53,0-7.54-8-7.54-8.63
		v-6.38c0-3.43,0.07-4.05,4.15-4.64v-0.47h-10.75v0.47c3.74,0.49,3.77,1.43,3.86,4.64v7c0,2.5-1,9.47,8.66,9.47
		c6.92,0,8.63-4.08,8.72-8.1l0.19-6.82c0.12-4.11,0.31-5.85,3.15-6.16v-0.5H173.93z"/>
	<path class="st0" d="M188.63,35.62h-4.37v0.39c3.36,0.74,3.78,1.78,3.78,4.42v4c0,6,0.14,8.43-3.43,8.8v0.4h7.9v-0.4
		c-3.83-0.76-3.67-2.11-3.67-8.67v-4.87c4.47,4.82,9.17,9.44,13.41,14.44l0.34-0.08c-0.13-5.76-0.26-12.14,0.11-15
		c0.21-1.72,0.55-2.73,2.37-3v-0.39h-7.21v0.39c3,0.53,3.67,1.27,3.7,3.79l0.13,9.65L188.63,35.62z"/>
	<path class="st0" d="M212.19,39.95c0.08-2.72,0.1-3.51,3.28-3.94v-0.39h-8.89v0.39c3.18,0.43,3.2,1.22,3.28,3.94v9.31
		c-0.08,2.73-0.1,3.52-3.28,3.94v0.4h8.89v-0.4c-3.18-0.42-3.2-1.21-3.28-3.94V39.95z"/>
	<path class="st0" d="M228.4,35.62v0.39c4,0.59,3.6,1.46,1.33,6.88l-3.13,7.48l-4.23-10.21c-0.68-1.66-1.9-3.78,1.83-4.15v-0.39
		h-8.39v0.39c2.35,0.27,3,2,3.75,3.89l6,14.31h0.37l5-12.06c1.64-3.84,2.4-5.92,4.89-6.14v-0.39H228.4z"/>
	<path class="st0" d="M236.08,53.6h14.73c0.58-1.69,0.89-3.46,0.9-5.24h-0.39c-0.67,3.33-2.31,4.6-5.64,4.6c-4.33,0-4-2.16-4-3.72
		V44.9h2.74c2,0,3.44,0,3.79,2.35h0.39v-5.89h-0.39c-0.3,2.27-1.8,2.43-3.79,2.43h-2.74v-7.54h2.56c2.67,0,5.13,0,5.31,3.44h0.4
		l0.32-4.07h-14.2v0.39c3.17,0.43,3.2,1.22,3.28,3.94v9.31c-0.08,2.73-0.11,3.52-3.28,3.94L236.08,53.6z"/>
	<path class="st0" d="M259.33,36.12c2.77,0,5.5,1.22,5.5,4.31c0,2.93-3,4.1-5.5,4.13V36.12z M257.01,49.26
		c-0.08,2.73-0.11,3.52-3.28,3.94v0.4h9.28v-0.4c-3.62-0.5-3.67-1-3.67-3.94V45c1.85,0.32,2.8-0.31,3.86,1.88
		c0.97,1.93,2.2,3.71,3.67,5.29c1.54,1.59,3.6,1.51,6.4,1.64l0.08-0.4c-4.36-0.9-6.9-5.44-8.94-9l-0.13-0.19
		c1.9-0.85,3.28-2.12,3.28-4.34c0-1.26-0.53-4.52-7.19-4.31l-6.46,0.22v0.37c3,0.26,3.1,0.87,3.1,4.91L257.01,49.26z"/>
	<path class="st0" d="M283.26,36.3c-1.18-0.65-2.51-0.99-3.86-1c-2.83,0-5.89,2-5.89,5c0,5.29,8.09,4.87,8.09,9.58
		c0.03,1.76-1.37,3.2-3.12,3.23c-0.12,0-0.24,0-0.37-0.01c-2.91,0-4.68-2.51-5.34-5.05h-0.48l0.77,4.5c1.39,0.88,3,1.34,4.65,1.35
		c3,0,6.43-1.78,6.43-5.19c0-5.34-8.33-5.18-8.33-9.75c0-1.61,1.31-2.92,2.93-2.91c0.06,0,0.11,0,0.16,0c2.62,0,3.31,2.06,3.73,4.2
		h0.42L283.26,36.3z"/>
	<path class="st0" d="M292.07,39.95c0.08-2.72,0.11-3.51,3.28-3.94v-0.39h-8.88v0.39c3.17,0.43,3.2,1.22,3.28,3.94v9.31
		c-0.08,2.73-0.11,3.52-3.28,3.94v0.4h8.88v-0.4c-3.17-0.42-3.2-1.21-3.28-3.94L292.07,39.95z"/>
	<path class="st0" d="M297.39,36.15c3,0.42,3.05,1.21,3.12,3.94v9.17c-0.07,2.73-0.1,3.52-3.27,3.94v0.4l7.87,0.05
		c9.1,0.08,11.53-5.21,11.53-9c0-2.75-1.21-9.47-12.85-9.1l-6.4,0.22V36.15z M302.85,36.09c5.74,0,10.74,2.62,10.74,9
		c0,6-4.1,7.93-7.14,7.93c-3.28,0-3.6-1.69-3.6-3.46L302.85,36.09z"/>
	<path class="st0" d="M329.52,46.06c0.69,1.85,1.7,4.34,1.7,5.45s-1.12,1.48-2,1.69v0.4h7.77v-0.4c-2.11-0.4-2.56-1.16-3.28-3.09
		l-5.81-15.5c-0.52,0.63-1.18,1.12-1.93,1.43c0.29,0.5-0.05,1.14-0.3,1.82l-1.58,4.31l-3,7.81c-0.82,2.06-1.06,2.59-3.41,3.22v0.4
		h7.25v-0.4c-1.19-0.18-3-0.18-3-1.8c0-1.27,1.16-4,1.61-5.34H329.52z M329.18,44.85h-5.24l2.49-6.88L329.18,44.85z"/>
	<path class="st0" d="M337.49,36.15c3,0.42,3,1.21,3.12,3.94v9.17c-0.08,2.73-0.11,3.52-3.28,3.94v0.4l7.88,0.05
		c9.1,0.08,11.53-5.21,11.53-9c0-2.75-1.21-9.47-12.85-9.1l-6.4,0.22V36.15z M342.95,36.09c5.74,0,10.73,2.62,10.73,9
		c0,6-4.09,7.93-7.14,7.93c-3.27,0-3.59-1.69-3.59-3.46V36.09z"/>
	<path class="st0" d="M366.33,36.15c3,0.42,3,1.21,3.12,3.94v9.17c-0.08,2.73-0.1,3.52-3.28,3.94v0.4l7.88,0.05
		c9.1,0.08,11.53-5.21,11.53-9c0-2.75-1.22-9.47-12.85-9.1l-6.4,0.22V36.15z M371.78,36.09c5.73,0,10.73,2.62,10.73,9
		c0,6-4.09,7.93-7.14,7.93c-3.28,0-3.59-1.69-3.59-3.46V36.09z"/>
	<path class="st0" d="M386.48,53.6h14.7c0.58-1.69,0.89-3.46,0.9-5.24h-0.39c-0.66,3.33-2.3,4.6-5.64,4.6c-4.33,0-4-2.16-4-3.72
		V44.9h2.77c2,0,3.44,0,3.78,2.35h0.39v-5.89h-0.39c-0.29,2.27-1.8,2.43-3.78,2.43h-2.75v-7.54h2.56c2.67,0,5.13,0,5.32,3.44h0.39
		l0.32-4.07h-14.2v0.39c3.17,0.43,3.2,1.22,3.28,3.94v9.31c-0.08,2.73-0.11,3.52-3.28,3.94L386.48,53.6z"/>
	<path class="st0" d="M117.67,68.47c-2.02-3.78-1.63-8.4,1-11.78c2.56-3.6,5.27-6.62,3.21-13.48c4.06,4.69,5.26,10.33,3.7,14.54
		C123.67,62.89,119.21,63.81,117.67,68.47z"/>
	<path class="st0" d="M106.98,69.85c-8.91-1.28-18.19-12.73-8.88-25.13c8.83-11.75,14.55-17.41,8.51-26.25
		c9.2,7.75,5.16,17.4-2.26,28.82C100.52,53.2,98.58,62.84,106.98,69.85z"/>
	<path class="st0" d="M81.05,74.8c0,0,3.61-0.58,13.23-3.12c5-1.32,10.69-0.4,13,2c1.38,1.47,2.4,3.24,3,5.16
		c0.2,0.66,0.36,1.32,0.49,2c0.33-0.91,0.7-1.8,1.13-2.66c0.97-0.5,1.69-1.38,2-2.43c0.59-1.57,0-3.77-2.82-5.77
		c-6.13-4.31-6.88-14.71-1.56-22.54c6.63-9.73,7.54-14.91,4.57-19.45c10.3,9.35,4.36,19.15,1,24.13c-3,4.32-3.94,8-3,12.18
		c0.18,1.29,0.56,2.55,1.15,3.72c0.75,1.17,2,4.35,3.89,3.63c3.07-1.13,6.07-0.42,11.21,0.68c8.7,1.85,11.95,2.43,11.95,2.43l6.58,9
		c0,0-15.92-3.09-21.54-3.9c-6.39-0.91-12.38,0.1-14.52,3.8c-2.11-3.65-8-4.71-14.11-3.83c-5.54,0.79-21.82,3.93-21.82,3.93
		L81.05,74.8z"/>
</g>
</svg>
