<?xml version="1.0" encoding="utf-8"?>
<!-- Generator: Adobe Illustrator 23.0.2, SVG Export Plug-In . SVG Version: 6.00 Build 0)  -->
<svg version="1.1" id="Layer_1" xmlns="http://www.w3.org/2000/svg" xmlns:xlink="http://www.w3.org/1999/xlink" x="0px" y="0px"
	 viewBox="0 0 476.96 102.98" style="enable-background:new 0 0 476.96 102.98;" xml:space="preserve">
<style type="text/css">
	.st0{clip-path:url(#SVGID_2_);}
	.st1{clip-path:url(#SVGID_4_);}
	.st2{fill:url(#XMLID_2_);}
	.st3{clip-path:url(#SVGID_6_);}
	.st4{fill:url(#XMLID_3_);}
	.st5{clip-path:url(#SVGID_8_);}
	.st6{fill:url(#XMLID_4_);}
	.st7{clip-path:url(#SVGID_10_);}
	.st8{fill:url(#XMLID_5_);}
	.st9{opacity:0.5;clip-path:url(#SVGID_12_);}
	.st10{fill:#FFFFFF;}
	.st11{opacity:0.3;fill:#FFFFFF;enable-background:new    ;}
	.st12{clip-path:url(#SVGID_14_);}
	.st13{clip-path:url(#SVGID_16_);}
	.st14{clip-path:url(#SVGID_18_);}
	.st15{fill:url(#XMLID_6_);}
	.st16{clip-path:url(#SVGID_20_);}
	.st17{fill:url(#XMLID_7_);}
	.st18{clip-path:url(#SVGID_22_);}
	.st19{fill:url(#XMLID_8_);}
	.st20{clip-path:url(#SVGID_24_);}
	.st21{fill:url(#XMLID_9_);}
</style>
<g>
	<g>
		<defs>
			<rect id="SVGID_1_" x="539.06" y="602.76" width="1920" height="5624.58"/>
		</defs>
		<clipPath id="SVGID_2_">
			<use xlink:href="#SVGID_1_"  style="overflow:visible;"/>
		</clipPath>
		<g class="st0">
			<g>
				<defs>
					<rect id="SVGID_3_" x="375.48" y="588.84" width="3789.47" height="5684.2"/>
				</defs>
				<clipPath id="SVGID_4_">
					<use xlink:href="#SVGID_3_"  style="overflow:visible;"/>
				</clipPath>
				<g id="XMLID_2372_" class="st1">
					
						<linearGradient id="XMLID_2_" gradientUnits="userSpaceOnUse" x1="16761.1133" y1="6771.604" x2="16761.1133" y2="11695.1855" gradientTransform="matrix(0 -1 -1 0 8767.4375 17353.3477)">
						<stop  offset="0" style="stop-color:#00B4D9;stop-opacity:0"/>
						<stop  offset="0.1419" style="stop-color:#10AAD3;stop-opacity:0.1426"/>
						<stop  offset="0.4211" style="stop-color:#3B8FC3;stop-opacity:0.4232"/>
						<stop  offset="0.807" style="stop-color:#8065AA;stop-opacity:0.8109"/>
						<stop  offset="0.9951" style="stop-color:#A44F9D"/>
					</linearGradient>
					<path id="XMLID_2373_" class="st2" d="M1674.7,592.25l-3272.76,3272.73L-4870.82,592.25l3272.76-3272.76L1674.7,592.25z
						 M-1598.06,2587.29L397,592.25l-1995.06-1995.06L-3593.12,592.25L-1598.06,2587.29z"/>
				</g>
			</g>
			<g>
				<defs>
					<rect id="SVGID_5_" x="375.48" y="588.84" width="3789.47" height="5684.2"/>
				</defs>
				<clipPath id="SVGID_6_">
					<use xlink:href="#SVGID_5_"  style="overflow:visible;"/>
				</clipPath>
				<g id="XMLID_2368_" class="st3">
					
						<linearGradient id="XMLID_3_" gradientUnits="userSpaceOnUse" x1="16373.8574" y1="8203.9492" x2="16373.8574" y2="10674.5361" gradientTransform="matrix(0 -1 -1 0 8767.4375 17353.3477)">
						<stop  offset="0" style="stop-color:#00B4D9;stop-opacity:0"/>
						<stop  offset="0.1419" style="stop-color:#10AAD3;stop-opacity:0.1426"/>
						<stop  offset="0.4211" style="stop-color:#3B8FC3;stop-opacity:0.4232"/>
						<stop  offset="0.807" style="stop-color:#8065AA;stop-opacity:0.8109"/>
						<stop  offset="0.9951" style="stop-color:#A44F9D"/>
					</linearGradient>
					<path id="XMLID_2369_" class="st4" d="M338.16,979.5l-1694.35,1694.33L-3050.54,979.5l1694.35-1694.35L338.16,979.5z
						 M-1356.19,1828.41l848.92-848.91l-848.92-848.92L-2205.1,979.5L-1356.19,1828.41z"/>
				</g>
			</g>
			<g>
				<defs>
					<rect id="SVGID_7_" x="375.48" y="588.84" width="3789.47" height="5684.2"/>
				</defs>
				<clipPath id="SVGID_8_">
					<use xlink:href="#SVGID_7_"  style="overflow:visible;"/>
				</clipPath>
				<g id="XMLID_2335_" class="st5">
					
						<linearGradient id="XMLID_4_" gradientUnits="userSpaceOnUse" x1="16761.1133" y1="6771.604" x2="16761.1133" y2="11695.1855" gradientTransform="matrix(0 -1 -1 0 8767.4375 17353.3477)">
						<stop  offset="0" style="stop-color:#00B4D9;stop-opacity:0"/>
						<stop  offset="0.1419" style="stop-color:#10AAD3;stop-opacity:0.1426"/>
						<stop  offset="0.4211" style="stop-color:#3B8FC3;stop-opacity:0.4232"/>
						<stop  offset="0.807" style="stop-color:#8065AA;stop-opacity:0.8109"/>
						<stop  offset="0.9951" style="stop-color:#A44F9D"/>
					</linearGradient>
					<path id="XMLID_2336_" class="st6" d="M1674.7,592.25l-3272.76,3272.73L-4870.82,592.25l3272.76-3272.76L1674.7,592.25z
						 M-1598.06,2587.29L397,592.25l-1995.06-1995.06L-3593.12,592.25L-1598.06,2587.29z"/>
				</g>
			</g>
			<g>
				<defs>
					<rect id="SVGID_9_" x="375.48" y="588.84" width="3789.47" height="5684.2"/>
				</defs>
				<clipPath id="SVGID_10_">
					<use xlink:href="#SVGID_9_"  style="overflow:visible;"/>
				</clipPath>
				<g id="XMLID_2331_" class="st7">
					
						<linearGradient id="XMLID_5_" gradientUnits="userSpaceOnUse" x1="16373.8574" y1="8203.9492" x2="16373.8574" y2="10674.5361" gradientTransform="matrix(0 -1 -1 0 8767.4375 17353.3477)">
						<stop  offset="0" style="stop-color:#00B4D9;stop-opacity:0"/>
						<stop  offset="0.1419" style="stop-color:#10AAD3;stop-opacity:0.1426"/>
						<stop  offset="0.4211" style="stop-color:#3B8FC3;stop-opacity:0.4232"/>
						<stop  offset="0.807" style="stop-color:#8065AA;stop-opacity:0.8109"/>
						<stop  offset="0.9951" style="stop-color:#A44F9D"/>
					</linearGradient>
					<path id="XMLID_2332_" class="st8" d="M338.16,979.5l-1694.35,1694.33L-3050.54,979.5l1694.35-1694.35L338.16,979.5z
						 M-1356.19,1828.41l848.92-848.91l-848.92-848.92L-2205.1,979.5L-1356.19,1828.41z"/>
				</g>
			</g>
			<g>
				<defs>
					<rect id="SVGID_11_" x="375.48" y="588.84" width="3789.47" height="5684.2"/>
				</defs>
				<clipPath id="SVGID_12_">
					<use xlink:href="#SVGID_11_"  style="overflow:visible;"/>
				</clipPath>
				<g id="XMLID_2292_" class="st9">
					<g id="XMLID_2295_">
						
							<rect id="XMLID_2296_" x="431.85" y="-307.12" transform="matrix(0.712 -0.7022 0.7022 0.712 -464.5819 551.0246)" class="st10" width="15.16" height="2297.95"/>
					</g>
					<g id="XMLID_2293_">
						
							<rect id="XMLID_2294_" x="589.22" y="-291.96" transform="matrix(0.712 -0.7022 0.7022 0.712 -429.9058 665.8933)" class="st10" width="15.16" height="2297.95"/>
					</g>
				</g>
			</g>
		</g>
	</g>
</g>
<g>
	<g>
		<path class="st10" d="M80.21,68.17c-1.19-0.05-1.28-0.27-1.47-5.81c-1.65,2.09-2.48,2.91-3.67,3.81
			c-2.29,1.63-5.96,2.81-8.99,2.81c-3.58,0-7.61-1.54-9.72-3.63c-2.39-2.27-3.67-6.08-3.67-10.53c0-0.45,0-1.09,0.09-1.82v-1.45
			v-10.3c0-4.83-5.36-4.38-5.5-4.99c-0.18-0.8,6.46-1.23,10.64-2c0.9-0.16,1.1,0.27,1.1,2.81l-0.18,15.4v2
			c0,6.72,4.04,11.35,10,11.35c5.69,0,10.37-4.09,9.91-8.81v-0.27V41.52c0.07-5.78-5.6-4.63-5.6-5.27c0-1,8.16-1.78,10.81-2.24
			c0.53-0.09,1.18,0.07,1.18,2.07v4.89c3.3-3.99,7.34-5.99,12.02-5.99c5.05,0,8.07,1.91,10.92,6.63c3.49-4.54,7.52-6.63,12.66-6.63
			c7.89,0,12.66,5.45,12.66,14.52v9.95c0,2,0.37,3.99,0.92,4.72c0.73,1,3.12,2.09,4.86,2.27c0.83,0.09,1.1,0.36,1.1,0.91
			c0,0.54-0.37,0.82-1.01,0.82c-0.37,0-14.49-0.02-14.76-0.02c-0.64,0-1.2-0.32-1.2-0.88c0-0.36,0.27-0.64,0.73-0.82
			c3.12-1.18,3.3-1.45,3.3-6.26v-9.13c0-4.27-0.64-6.63-2.39-8.9c-1.83-2.45-4.31-3.72-7.15-3.72c-4.4,0-8.9,3-8.9,5.9
			c0,0.27,0,0.63,0.09,1.09c0.28,1.45,0.28,1.63,0.28,3v11.58c0,4.54,1.19,5.99,5.5,6.35c1.01,0.09,1.47,0.45,1.47,1
			c0,0.54-0.46,0.82-1.19,0.82c0,0-14.55-0.03-14.83-0.03c-0.55,0-1.14-0.19-1.13-0.88c0-0.27,0.28-0.55,0.83-0.73
			c3.12-1.09,3.21-1.27,3.21-5.9V48.6c0-6.26-3.49-10.08-9.17-10.08c-5.23,0-8.81,2.9-8.81,7.35v14.67c0,1.1,0.07,2.18,0.06,3.14
			c0.44,2.54,5.82,2.33,5.83,2.67c0.02,0.41-0.14,0.66-0.5,0.71C90.53,67.06,80.25,68.18,80.21,68.17z"/>
		<g>
			<g>
				<path class="st10" d="M366.86,38.74l7.26,13.83c1.95,0.12,3.89,0.23,5.81,0.36l-10-17.97h-5.9l-9.08,16.62
					c1.68,0.08,3.35,0.15,5.01,0.23L366.86,38.74z"/>
				<path class="st10" d="M404.6,34.96h-5.52v19.33c1.85,0.15,3.69,0.3,5.52,0.45V34.96z"/>
				<path class="st10" d="M382.26,68.07h6.1l-8.42-15.14c-1.93-0.13-3.86-0.24-5.81-0.36L382.26,68.07z"/>
				<path class="st10" d="M351.39,68.07l8.58-16.27c-1.66-0.08-3.34-0.16-5.01-0.23l-9.02,16.5H351.39z"/>
				<path class="st10" d="M429.69,68.07v-4.62H404.6v-8.71c-1.83-0.15-3.67-0.3-5.52-0.45v13.78H429.69z"/>
				<polygon class="st10" points="174.89,34.96 164.84,54.79 164.84,54.79 				"/>
				<path class="st10" d="M146.27,34.96h-5.97l11.48,21.01c1.77-0.17,3.56-0.34,5.36-0.5L146.27,34.96z"/>
				<path class="st10" d="M196.59,34.96h-5.52v17.91c1.83-0.12,3.67-0.23,5.52-0.33V34.96z"/>
				<path class="st10" d="M275.53,39.45h15.21v-4.49h-35.88v4.49h15.15v10.64c1.83-0.02,3.67-0.03,5.52-0.04L275.53,39.45
					L275.53,39.45z"/>
				<path class="st10" d="M335.22,34.96h-5.52v15.68c1.85,0.05,3.68,0.11,5.52,0.17V34.96z"/>
				<path class="st10" d="M305.57,34.96h-5.52v15.13c1.84,0.02,3.69,0.03,5.52,0.06V34.96z"/>
				<path class="st10" d="M229.05,50.88v0.13c1.23-0.04,2.46-0.09,3.7-0.13H229.05z"/>
				<path class="st10" d="M219.31,39.26h19c1.33,0,2.26,0.25,2.79,0.74c0.54,0.49,0.8,1.38,0.8,2.66v4.82c0,1.33-0.27,2.23-0.8,2.7
					c-0.24,0.21-0.57,0.36-0.96,0.48c2.37-0.06,4.76-0.13,7.15-0.18c0.08-0.52,0.13-1.09,0.13-1.7V41.4c0-2.27-0.56-3.91-1.67-4.91
					c-1.11-1.01-2.88-1.51-5.32-1.51h-26.65v16.67c1.83-0.09,3.67-0.17,5.52-0.25V39.26H219.31z"/>
				<path class="st10" d="M170.2,54.35l10.15-19.39L170.2,54.35z"/>
				<path class="st10" d="M170.2,54.35l10.15-19.39h-5.46L164.84,54.8C166.62,54.64,168.4,54.5,170.2,54.35z"/>
				<path class="st11" d="M238.3,50.88c0.74,0,1.34-0.08,1.83-0.23c-2.47,0.07-4.93,0.15-7.38,0.23H238.3z"/>
				<path class="st10" d="M158.4,68.07l2.5-5.51l3.94-7.77l0,0l-3.94,7.76l-3.76-7.09c-1.8,0.16-3.58,0.33-5.36,0.5L158.4,68.07
					L158.4,68.07z"/>
				<path class="st10" d="M196.59,68.07V52.53c-1.85,0.11-3.69,0.22-5.52,0.33v15.21C191.07,68.07,196.59,68.07,196.59,68.07z"/>
				<path class="st10" d="M275.53,68.07V50.05c-1.84,0.01-3.68,0.02-5.52,0.04v17.99h5.52V68.07z"/>
				<path class="st10" d="M301.69,66.44c1.09,1.09,3.14,1.63,6.14,1.63h19.68c3,0,5.04-0.54,6.11-1.63
					c1.07-1.09,1.61-3.16,1.61-6.19v-9.44c-1.83-0.06-3.67-0.11-5.52-0.17v12.81h-24.13v-13.3c-1.83-0.03-3.68-0.04-5.52-0.06v10.16
					C300.05,63.28,300.59,65.35,301.69,66.44z"/>
				<path class="st10" d="M219.31,68.07V51.38c-1.85,0.08-3.69,0.16-5.52,0.25v16.44H219.31z"/>
				<path class="st10" d="M238.3,50.88h-5.55c-1.24,0.04-2.47,0.08-3.7,0.13v4.18l13.45,12.89h8.21l-15.15-12.9h4.87
					c2.43,0,4.2-0.5,5.31-1.51c0.81-0.73,1.31-1.81,1.53-3.2c-2.39,0.06-4.78,0.12-7.15,0.18C239.64,50.8,239.04,50.88,238.3,50.88z
					"/>
				<path class="st10" d="M170.2,54.35c-1.8,0.14-3.59,0.29-5.36,0.44l-3.94,7.77l-2.5,5.51h4.62L170.2,54.35z"/>
				<path class="st10" d="M344.31,56.06l-1.46,3.37c18.9-0.35,39.83-3.41,44.81-11.36c-8.99,4.58-23.21,7.44-37.58,7.84
					c-0.45,0.02-3.96,0.11-3.96,0.11L344.31,56.06z"/>
			</g>
		</g>
	</g>
</g>
<g>
	<g>
		<defs>
			<rect id="SVGID_13_" x="2759.65" y="-466.02" width="1601" height="6738.51"/>
		</defs>
		<clipPath id="SVGID_14_">
			<use xlink:href="#SVGID_13_"  style="overflow:visible;"/>
		</clipPath>
		<g class="st12">
			<g>
				<defs>
					<rect id="SVGID_15_" x="2759.25" y="-466.01" width="2534.15" height="7423.71"/>
				</defs>
				<clipPath id="SVGID_16_">
					<use xlink:href="#SVGID_15_"  style="overflow:visible;"/>
				</clipPath>
				<g class="st13">
					<g>
						<defs>
							<rect id="SVGID_17_" x="2543.35" y="-484.39" width="5001.6" height="7502.4"/>
						</defs>
						<clipPath id="SVGID_18_">
							<use xlink:href="#SVGID_17_"  style="overflow:visible;"/>
						</clipPath>
						<g id="XMLID_3626_" class="st14">
							
								<linearGradient id="XMLID_6_" gradientUnits="userSpaceOnUse" x1="17833.2617" y1="4085.4319" x2="17833.2617" y2="10583.9189" gradientTransform="matrix(0 -1 -1 0 8767.4375 17353.3477)">
								<stop  offset="0" style="stop-color:#00B4D9;stop-opacity:0"/>
								<stop  offset="0.1419" style="stop-color:#10AAD3;stop-opacity:0.1426"/>
								<stop  offset="0.4211" style="stop-color:#3B8FC3;stop-opacity:0.4232"/>
								<stop  offset="0.807" style="stop-color:#8065AA;stop-opacity:0.8109"/>
								<stop  offset="0.9951" style="stop-color:#A44F9D"/>
							</linearGradient>
							<path id="XMLID_3627_" class="st15" d="M4258.15-479.89L-61.47,3839.68L-4381.08-479.89L-61.47-4799.51L4258.15-479.89z
								 M-61.47,2153.3L2571.75-479.9L-61.47-3113.11L-2694.68-479.89L-61.47,2153.3z"/>
						</g>
					</g>
					<g>
						<defs>
							<rect id="SVGID_19_" x="2543.35" y="-484.39" width="5001.6" height="7502.4"/>
						</defs>
						<clipPath id="SVGID_20_">
							<use xlink:href="#SVGID_19_"  style="overflow:visible;"/>
						</clipPath>
						<g id="XMLID_3622_" class="st16">
							
								<linearGradient id="XMLID_7_" gradientUnits="userSpaceOnUse" x1="17322.127" y1="5975.9424" x2="17322.127" y2="9236.7959" gradientTransform="matrix(0 -1 -1 0 8767.4375 17353.3477)">
								<stop  offset="0" style="stop-color:#00B4D9;stop-opacity:0"/>
								<stop  offset="0.1419" style="stop-color:#10AAD3;stop-opacity:0.1426"/>
								<stop  offset="0.4211" style="stop-color:#3B8FC3;stop-opacity:0.4232"/>
								<stop  offset="0.807" style="stop-color:#8065AA;stop-opacity:0.8109"/>
								<stop  offset="0.9951" style="stop-color:#A44F9D"/>
							</linearGradient>
							<path id="XMLID_3623_" class="st17" d="M2494.09,31.23L257.77,2267.53L-1978.55,31.23L257.77-2205.09L2494.09,31.23z
								 M257.77,1151.68L1378.23,31.23L257.77-1089.23L-862.69,31.23L257.77,1151.68z"/>
						</g>
					</g>
					<g>
						<defs>
							<rect id="SVGID_21_" x="2543.35" y="-484.39" width="5001.6" height="7502.4"/>
						</defs>
						<clipPath id="SVGID_22_">
							<use xlink:href="#SVGID_21_"  style="overflow:visible;"/>
						</clipPath>
						<g id="XMLID_3589_" class="st18">
							
								<linearGradient id="XMLID_8_" gradientUnits="userSpaceOnUse" x1="17833.2617" y1="4085.4319" x2="17833.2617" y2="10583.9189" gradientTransform="matrix(0 -1 -1 0 8767.4375 17353.3477)">
								<stop  offset="0" style="stop-color:#00B4D9;stop-opacity:0"/>
								<stop  offset="0.1419" style="stop-color:#10AAD3;stop-opacity:0.1426"/>
								<stop  offset="0.4211" style="stop-color:#3B8FC3;stop-opacity:0.4232"/>
								<stop  offset="0.807" style="stop-color:#8065AA;stop-opacity:0.8109"/>
								<stop  offset="0.9951" style="stop-color:#A44F9D"/>
							</linearGradient>
							<path id="XMLID_3590_" class="st19" d="M4258.15-479.89L-61.47,3839.68L-4381.08-479.89L-61.47-4799.51L4258.15-479.89z
								 M-61.47,2153.3L2571.75-479.9L-61.47-3113.11L-2694.68-479.89L-61.47,2153.3z"/>
						</g>
					</g>
					<g>
						<defs>
							<rect id="SVGID_23_" x="2543.35" y="-484.39" width="5001.6" height="7502.4"/>
						</defs>
						<clipPath id="SVGID_24_">
							<use xlink:href="#SVGID_23_"  style="overflow:visible;"/>
						</clipPath>
						<g id="XMLID_3585_" class="st20">
							
								<linearGradient id="XMLID_9_" gradientUnits="userSpaceOnUse" x1="17322.127" y1="5975.9424" x2="17322.127" y2="9236.7959" gradientTransform="matrix(0 -1 -1 0 8767.4375 17353.3477)">
								<stop  offset="0" style="stop-color:#00B4D9;stop-opacity:0"/>
								<stop  offset="0.1419" style="stop-color:#10AAD3;stop-opacity:0.1426"/>
								<stop  offset="0.4211" style="stop-color:#3B8FC3;stop-opacity:0.4232"/>
								<stop  offset="0.807" style="stop-color:#8065AA;stop-opacity:0.8109"/>
								<stop  offset="0.9951" style="stop-color:#A44F9D"/>
							</linearGradient>
							<path id="XMLID_3586_" class="st21" d="M2494.09,31.23L257.77,2267.53L-1978.55,31.23L257.77-2205.09L2494.09,31.23z
								 M257.77,1151.68L1378.23,31.23L257.77-1089.23L-862.69,31.23L257.77,1151.68z"/>
						</g>
					</g>
				</g>
			</g>
		</g>
	</g>
</g>
</svg>
