<?xml version="1.0" encoding="utf-8"?>
<!-- Generator: Adobe Illustrator 23.0.2, SVG Export Plug-In . SVG Version: 6.00 Build 0)  -->
<svg version="1.1" id="Layer_1" xmlns="http://www.w3.org/2000/svg" xmlns:xlink="http://www.w3.org/1999/xlink" x="0px" y="0px"
	 viewBox="0 0 749.27 7138.08" style="enable-background:new 0 0 749.27 7138.08;" xml:space="preserve">
<style type="text/css">
	.st0{fill:#27AAE1;}
	.st1{fill:#5492CD;}
	.st2{fill:#52C2D1;}
	.st3{fill:#4451A3;}
	.st4{fill:#5785C5;}
	.st5{fill:url(#SVGID_1_);}
	.st6{fill:url(#SVGID_2_);}
	.st7{fill:#4456A6;}
	.st8{fill:url(#SVGID_3_);}
	.st9{fill:#FFFFFF;}
	.st10{opacity:0.3;fill:#FFFFFF;}
	.st11{fill:#F3F8F8;}
	.st12{fill:#29C0D3;}
	.st13{fill:#FFD450;}
	.st14{fill:#ECEEEF;}
	.st15{fill:#2DC0D3;}
	.st16{fill:#4B81C2;}
	.st17{fill:#1A1613;}
	.st18{fill:#FFEFCD;}
	.st19{fill:#2D337F;}
	.st20{fill:#3C4EA1;}
	.st21{fill:#474D4F;}
	.st22{fill:#BAE4EA;}
	.st23{fill:url(#SVGID_12_);}
	.st24{fill:url(#SVGID_13_);}
	.st25{fill:url(#SVGID_14_);}
	.st26{fill:url(#SVGID_15_);}
	.st27{fill:url(#SVGID_16_);}
	.st28{fill:url(#SVGID_17_);}
	.st29{fill:url(#SVGID_18_);}
	.st30{fill:url(#SVGID_19_);}
	.st31{fill:url(#SVGID_20_);}
	.st32{fill:url(#SVGID_21_);}
	.st33{fill:url(#SVGID_22_);}
	.st34{fill:url(#SVGID_23_);}
	.st35{fill:url(#SVGID_24_);}
	.st36{fill:url(#SVGID_25_);}
	.st37{fill:url(#SVGID_26_);}
	.st38{fill:url(#SVGID_27_);}
	.st39{fill:url(#SVGID_28_);}
	.st40{fill:url(#SVGID_29_);}
	.st41{fill:url(#SVGID_30_);}
	.st42{fill:url(#SVGID_31_);}
	.st43{fill:url(#SVGID_32_);}
	.st44{fill:url(#SVGID_33_);}
	.st45{fill:url(#SVGID_34_);}
	.st46{fill:url(#SVGID_35_);}
	.st47{fill:url(#SVGID_36_);}
	.st48{fill:url(#SVGID_37_);}
	.st49{fill:url(#SVGID_38_);}
	.st50{fill:url(#SVGID_39_);}
	.st51{fill:none;}
	.st52{fill:url(#SVGID_46_);}
</style>
<g>
	<polygon class="st0" points="281.05,3442.04 714.88,4067.28 749.27,4017.72 749.27,2866.36 714.88,2816.8 	"/>
	<polygon class="st2" points="392.45,997.52 707.72,1458.69 696.99,1473.93 381.8,1012.87 322.04,1099 732.55,1699.49 
		721.83,1714.74 311.39,1114.35 0,1563.12 0,3221.29 1.08,3222.85 714.88,2194.12 749.27,2243.68 749.27,1343.36 453.1,910.12 	"/>
	<polygon class="st2" points="361.38,4180.49 188.25,4429.99 395.45,4728.6 0,5298.52 0,6635.58 212.29,6946.21 353.7,6743.3 
		621.37,7130.77 749.27,7130.77 749.27,5808.39 513.46,5468.55 749.27,5128.71 749.27,4640.4 714.88,4689.96 	"/>
	<polygon class="st3" points="749.27,1312.43 749.27,1185.6 636.52,1023.1 749.27,860.6 749.27,483.28 463.75,894.77 	"/>
	<polygon class="st4" points="0,3843.98 0,4078.63 81.41,3961.3 	"/>
	
		<linearGradient id="SVGID_1_" gradientUnits="userSpaceOnUse" x1="6536.0674" y1="-1840.7668" x2="13095.252" y2="-1840.7668" gradientTransform="matrix(0 -1.2412 1.2692 0 3029.1936 16185.5576)">
		<stop  offset="0" style="stop-color:#72C7B8"/>
		<stop  offset="1" style="stop-color:#2B75BA"/>
	</linearGradient>
	<polygon class="st5" points="749.27,1185.6 749.27,860.6 636.52,1023.1 	"/>
	<polygon class="st4" points="749.27,1185.6 749.27,860.6 636.52,1023.1 	"/>
	
		<linearGradient id="SVGID_2_" gradientUnits="userSpaceOnUse" x1="6536.0674" y1="-2386.2695" x2="13095.252" y2="-2386.2695" gradientTransform="matrix(0 -1.2412 1.2692 0 3029.1936 16185.5576)">
		<stop  offset="0" style="stop-color:#72C7B8"/>
		<stop  offset="1" style="stop-color:#2B75BA"/>
	</linearGradient>
	<polygon class="st6" points="0,3221.29 0,3224.41 1.08,3222.85 	"/>
	
		<linearGradient id="SVGID_3_" gradientUnits="userSpaceOnUse" x1="11998.3486" y1="-2412.2087" x2="11998.3486" y2="-4340.7495" gradientTransform="matrix(0 -1 1 0 3023.594 15221.2002)">
		<stop  offset="0" style="stop-color:#07B4D9;stop-opacity:0"/>
		<stop  offset="0.1235" style="stop-color:#38ADD4;stop-opacity:0.1241"/>
		<stop  offset="0.3666" style="stop-color:#659AC7;stop-opacity:0.3684"/>
		<stop  offset="0.7022" style="stop-color:#8C78B1;stop-opacity:0.7057"/>
		<stop  offset="0.9951" style="stop-color:#A4509E"/>
	</linearGradient>
	<polygon class="st8" points="0,3221.29 0,3224.41 1.08,3222.85 	"/>
	
		<linearGradient id="SVGID_5_" gradientUnits="userSpaceOnUse" x1="6536.0674" y1="-2244.3313" x2="13095.252" y2="-2244.3313" gradientTransform="matrix(0 -1.2412 1.2692 0 3029.1936 16185.5576)">
		<stop  offset="0" style="stop-color:#72C7B8"/>
		<stop  offset="1" style="stop-color:#2B75BA"/>
	</linearGradient>
	<polygon style="fill:url(#SVGID_5_);" points="361.38,4180.49 0,3659.68 0,3843.98 81.41,3961.3 0,4078.63 0,4158.68 
		188.25,4429.99 	"/>
	<polygon class="st2" points="361.38,4180.49 0,3659.68 0,3843.98 81.41,3961.3 0,4078.63 0,4158.68 188.25,4429.99 	"/>
	
		<linearGradient id="SVGID_7_" gradientUnits="userSpaceOnUse" x1="6536.0674" y1="-2091.0957" x2="13095.252" y2="-2091.0957" gradientTransform="matrix(0 -1.2412 1.2692 0 3029.1936 16185.5576)">
		<stop  offset="0" style="stop-color:#72C7B8"/>
		<stop  offset="1" style="stop-color:#2B75BA"/>
	</linearGradient>
	<polygon style="fill:url(#SVGID_7_);" points="1.08,3222.85 513.46,3961.3 361.38,4180.49 714.88,4689.96 749.27,4640.4 
		749.27,4017.72 714.88,4067.28 281.05,3442.04 714.88,2816.8 749.27,2866.36 749.27,2243.68 714.88,2194.12 	"/>
	
		<linearGradient id="SVGID_9_" gradientUnits="userSpaceOnUse" x1="11779.1631" y1="-3421.8008" x2="11779.1631" y2="-754.0856" gradientTransform="matrix(0 -1 1 0 3023.594 15221.2002)">
		<stop  offset="0" style="stop-color:#07B4D9;stop-opacity:0"/>
		<stop  offset="0.1235" style="stop-color:#38ADD4;stop-opacity:0.1241"/>
		<stop  offset="0.3666" style="stop-color:#659AC7;stop-opacity:0.3684"/>
		<stop  offset="0.7022" style="stop-color:#8C78B1;stop-opacity:0.7057"/>
		<stop  offset="0.9951" style="stop-color:#A4509E"/>
	</linearGradient>
	<polygon style="fill:url(#SVGID_9_);" points="1.08,3222.85 513.46,3961.3 361.38,4180.49 714.88,4689.96 749.27,4640.4 
		749.27,4017.72 714.88,4067.28 281.05,3442.04 714.88,2816.8 749.27,2866.36 749.27,2243.68 714.88,2194.12 	"/>
	<polygon class="st4" points="1.08,3222.85 513.46,3961.3 361.38,4180.49 714.88,4689.96 749.27,4640.4 749.27,4017.72 
		714.88,4067.28 281.05,3442.04 714.88,2816.8 749.27,2866.36 749.27,2243.68 714.88,2194.12 	"/>
	
		<linearGradient id="SVGID_11_" gradientUnits="userSpaceOnUse" x1="6536.0674" y1="-2184.4167" x2="13095.252" y2="-2184.4167" gradientTransform="matrix(0 -1.2412 1.2692 0 3029.1936 16185.5576)">
		<stop  offset="0" style="stop-color:#72C7B8"/>
		<stop  offset="1" style="stop-color:#2B75BA"/>
	</linearGradient>
	<polygon style="fill:url(#SVGID_11_);" points="513.46,3961.3 1.08,3222.85 0,3224.41 0,3659.68 361.38,4180.49 	"/>
	
		<linearGradient id="SVGID_12_" gradientUnits="userSpaceOnUse" x1="11519.5293" y1="-2412.2087" x2="11519.5293" y2="-4340.7495" gradientTransform="matrix(0 -1 1 0 3023.594 15221.2002)">
		<stop  offset="0" style="stop-color:#07B4D9;stop-opacity:0"/>
		<stop  offset="0.1235" style="stop-color:#38ADD4;stop-opacity:0.1241"/>
		<stop  offset="0.3666" style="stop-color:#659AC7;stop-opacity:0.3684"/>
		<stop  offset="0.7022" style="stop-color:#8C78B1;stop-opacity:0.7057"/>
		<stop  offset="0.9951" style="stop-color:#A4509E"/>
	</linearGradient>
	<polygon class="st23" points="513.46,3961.3 1.08,3222.85 0,3224.41 0,3659.68 361.38,4180.49 	"/>
	
		<linearGradient id="SVGID_13_" gradientUnits="userSpaceOnUse" x1="11519.5293" y1="-3421.8008" x2="11519.5293" y2="-754.0856" gradientTransform="matrix(0 -1 1 0 3023.594 15221.2002)">
		<stop  offset="0" style="stop-color:#07B4D9;stop-opacity:0"/>
		<stop  offset="0.1235" style="stop-color:#38ADD4;stop-opacity:0.1241"/>
		<stop  offset="0.3666" style="stop-color:#659AC7;stop-opacity:0.3684"/>
		<stop  offset="0.7022" style="stop-color:#8C78B1;stop-opacity:0.7057"/>
		<stop  offset="0.9951" style="stop-color:#A4509E"/>
	</linearGradient>
	<polygon class="st24" points="513.46,3961.3 1.08,3222.85 0,3224.41 0,3659.68 361.38,4180.49 	"/>
	<polygon class="st7" points="513.46,3961.3 1.08,3222.85 0,3224.41 0,3659.68 361.38,4180.49 	"/>
	
		<linearGradient id="SVGID_14_" gradientUnits="userSpaceOnUse" x1="6536.0674" y1="-2264.0232" x2="13095.252" y2="-2264.0232" gradientTransform="matrix(0 -1.2412 1.2692 0 3029.1936 16185.5576)">
		<stop  offset="0" style="stop-color:#72C7B8"/>
		<stop  offset="1" style="stop-color:#2B75BA"/>
	</linearGradient>
	<polygon class="st25" points="0,658.85 0,1563.12 311.39,1114.35 	"/>
	
		<linearGradient id="SVGID_15_" gradientUnits="userSpaceOnUse" x1="14110.2168" y1="-1575.864" x2="14110.2168" y2="-6468.8828" gradientTransform="matrix(0 -1 1 0 3023.594 15221.2002)">
		<stop  offset="0" style="stop-color:#07B4D9;stop-opacity:0"/>
		<stop  offset="0.1235" style="stop-color:#38ADD4;stop-opacity:0.1241"/>
		<stop  offset="0.3666" style="stop-color:#659AC7;stop-opacity:0.3684"/>
		<stop  offset="0.7022" style="stop-color:#8C78B1;stop-opacity:0.7057"/>
		<stop  offset="0.9951" style="stop-color:#A4509E"/>
	</linearGradient>
	<polygon class="st26" points="0,658.85 0,1563.12 311.39,1114.35 	"/>
	<polygon class="st4" points="0,658.85 0,1563.12 311.39,1114.35 	"/>
	
		<linearGradient id="SVGID_16_" gradientUnits="userSpaceOnUse" x1="6536.0674" y1="-2208.1978" x2="13095.252" y2="-2208.1978" gradientTransform="matrix(0 -1.2412 1.2692 0 3029.1936 16185.5576)">
		<stop  offset="0" style="stop-color:#72C7B8"/>
		<stop  offset="1" style="stop-color:#2B75BA"/>
	</linearGradient>
	<polygon class="st27" points="453.1,910.12 0,247.33 0,423.44 392.45,997.52 	"/>
	
		<linearGradient id="SVGID_17_" gradientUnits="userSpaceOnUse" x1="14598.7764" y1="-1575.864" x2="14598.7764" y2="-6468.8828" gradientTransform="matrix(0 -1 1 0 3023.594 15221.2002)">
		<stop  offset="0" style="stop-color:#07B4D9;stop-opacity:0"/>
		<stop  offset="0.1235" style="stop-color:#38ADD4;stop-opacity:0.1241"/>
		<stop  offset="0.3666" style="stop-color:#659AC7;stop-opacity:0.3684"/>
		<stop  offset="0.7022" style="stop-color:#8C78B1;stop-opacity:0.7057"/>
		<stop  offset="0.9951" style="stop-color:#A4509E"/>
	</linearGradient>
	<polygon class="st28" points="453.1,910.12 0,247.33 0,423.44 392.45,997.52 	"/>
	<polygon class="st4" points="453.1,910.12 0,247.33 0,423.44 392.45,997.52 	"/>
	
		<linearGradient id="SVGID_18_" gradientUnits="userSpaceOnUse" x1="6536.0674" y1="-2236.2854" x2="13095.252" y2="-2236.2854" gradientTransform="matrix(0 -1.2412 1.2692 0 3029.1936 16185.5576)">
		<stop  offset="0" style="stop-color:#72C7B8"/>
		<stop  offset="1" style="stop-color:#2B75BA"/>
	</linearGradient>
	<polygon class="st29" points="381.8,1012.87 0,454.38 0,627.91 322.04,1099 	"/>
	
		<linearGradient id="SVGID_19_" gradientUnits="userSpaceOnUse" x1="14444.5146" y1="-1575.864" x2="14444.5146" y2="-6468.8828" gradientTransform="matrix(0 -1 1 0 3023.594 15221.2002)">
		<stop  offset="0" style="stop-color:#07B4D9;stop-opacity:0"/>
		<stop  offset="0.1235" style="stop-color:#38ADD4;stop-opacity:0.1241"/>
		<stop  offset="0.3666" style="stop-color:#659AC7;stop-opacity:0.3684"/>
		<stop  offset="0.7022" style="stop-color:#8C78B1;stop-opacity:0.7057"/>
		<stop  offset="0.9951" style="stop-color:#A4509E"/>
	</linearGradient>
	<polygon class="st30" points="381.8,1012.87 0,454.38 0,627.91 322.04,1099 	"/>
	<polygon class="st4" points="381.8,1012.87 0,454.38 0,627.91 322.04,1099 	"/>
	
		<linearGradient id="SVGID_20_" gradientUnits="userSpaceOnUse" x1="6536.0674" y1="-2091.5215" x2="13095.252" y2="-2091.5215" gradientTransform="matrix(0 -1.2412 1.2692 0 3029.1936 16185.5576)">
		<stop  offset="0" style="stop-color:#72C7B8"/>
		<stop  offset="1" style="stop-color:#2B75BA"/>
	</linearGradient>
	<polygon class="st31" points="0,0 0,216.39 463.75,894.77 749.27,483.28 749.27,0 	"/>
	
		<linearGradient id="SVGID_21_" gradientUnits="userSpaceOnUse" x1="14773.8164" y1="-1575.864" x2="14773.8164" y2="-6468.8828" gradientTransform="matrix(0 -1 1 0 3023.594 15221.2002)">
		<stop  offset="0" style="stop-color:#07B4D9;stop-opacity:0"/>
		<stop  offset="0.1235" style="stop-color:#38ADD4;stop-opacity:0.1241"/>
		<stop  offset="0.3666" style="stop-color:#659AC7;stop-opacity:0.3684"/>
		<stop  offset="0.7022" style="stop-color:#8C78B1;stop-opacity:0.7057"/>
		<stop  offset="0.9951" style="stop-color:#A4509E"/>
	</linearGradient>
	<polygon class="st32" points="0,0 0,216.39 463.75,894.77 749.27,483.28 749.27,0 	"/>
	<polygon class="st2" points="0,0 0,216.39 463.75,894.77 749.27,483.28 749.27,0 	"/>
	
		<linearGradient id="SVGID_22_" gradientUnits="userSpaceOnUse" x1="6536.0674" y1="-2230.9084" x2="13095.252" y2="-2230.9084" gradientTransform="matrix(0 -1.2412 1.2692 0 3029.1936 16185.5576)">
		<stop  offset="0" style="stop-color:#72C7B8"/>
		<stop  offset="1" style="stop-color:#2B75BA"/>
	</linearGradient>
	<polygon class="st33" points="188.25,4429.99 0,4701.3 0,5298.52 395.45,4728.6 	"/>
	<polygon class="st7" points="188.25,4429.99 0,4701.3 0,5298.52 395.45,4728.6 	"/>
	
		<linearGradient id="SVGID_23_" gradientUnits="userSpaceOnUse" x1="6536.0674" y1="-2312.5327" x2="13095.252" y2="-2312.5327" gradientTransform="matrix(0 -1.2412 1.2692 0 3029.1936 16185.5576)">
		<stop  offset="0" style="stop-color:#72C7B8"/>
		<stop  offset="1" style="stop-color:#2B75BA"/>
	</linearGradient>
	<polygon class="st34" points="0,4158.68 0,4701.3 188.25,4429.99 	"/>
	
		<linearGradient id="SVGID_24_" gradientUnits="userSpaceOnUse" x1="10791.209" y1="-2412.2087" x2="10791.209" y2="-4340.7495" gradientTransform="matrix(0 -1 1 0 3023.594 15221.2002)">
		<stop  offset="0" style="stop-color:#07B4D9;stop-opacity:0"/>
		<stop  offset="0.1235" style="stop-color:#38ADD4;stop-opacity:0.1241"/>
		<stop  offset="0.3666" style="stop-color:#659AC7;stop-opacity:0.3684"/>
		<stop  offset="0.7022" style="stop-color:#8C78B1;stop-opacity:0.7057"/>
		<stop  offset="0.9951" style="stop-color:#A4509E"/>
	</linearGradient>
	<polygon class="st35" points="0,4158.68 0,4701.3 188.25,4429.99 	"/>
	<polygon class="st0" points="0,4158.68 0,4701.3 188.25,4429.99 	"/>
	
		<linearGradient id="SVGID_25_" gradientUnits="userSpaceOnUse" x1="6536.0674" y1="-1889.243" x2="13095.252" y2="-1889.243" gradientTransform="matrix(0 -1.2412 1.2692 0 3029.1936 16185.5576)">
		<stop  offset="0" style="stop-color:#72C7B8"/>
		<stop  offset="1" style="stop-color:#2B75BA"/>
	</linearGradient>
	<polygon class="st36" points="749.27,5808.39 749.27,5128.71 513.46,5468.55 	"/>
	
		<linearGradient id="SVGID_26_" gradientUnits="userSpaceOnUse" x1="9752.6514" y1="-2682.6118" x2="9752.6514" y2="-821.2306" gradientTransform="matrix(0 -1 1 0 3023.594 15221.2002)">
		<stop  offset="0" style="stop-color:#07B4D9;stop-opacity:0"/>
		<stop  offset="0.1235" style="stop-color:#38ADD4;stop-opacity:0.1241"/>
		<stop  offset="0.3666" style="stop-color:#659AC7;stop-opacity:0.3684"/>
		<stop  offset="0.7022" style="stop-color:#8C78B1;stop-opacity:0.7057"/>
		<stop  offset="0.9951" style="stop-color:#A4509E"/>
	</linearGradient>
	<polygon class="st37" points="749.27,5808.39 749.27,5128.71 513.46,5468.55 	"/>
	<polygon class="st4" points="749.27,5808.39 749.27,5128.71 513.46,5468.55 	"/>
	
		<linearGradient id="SVGID_27_" gradientUnits="userSpaceOnUse" x1="6536.0674" y1="-2058.2773" x2="13095.252" y2="-2058.2773" gradientTransform="matrix(0 -1.2412 1.2692 0 3029.1936 16185.5576)">
		<stop  offset="0" style="stop-color:#72C7B8"/>
		<stop  offset="1" style="stop-color:#2B75BA"/>
	</linearGradient>
	<polygon class="st38" points="212.29,6946.21 338.42,7130.77 621.37,7130.77 353.7,6743.3 	"/>
	<polygon class="st4" points="212.29,6946.21 338.42,7130.77 621.37,7130.77 353.7,6743.3 	"/>
	<polygon class="st0" points="721.83,1714.74 732.55,1699.49 322.04,1099 0,627.91 0,658.85 311.39,1114.35 	"/>
	<polygon class="st0" points="696.99,1473.93 707.72,1458.69 392.45,997.52 0,423.44 0,454.38 381.8,1012.87 	"/>
	<polygon class="st0" points="0,216.39 0,247.33 453.1,910.12 749.27,1343.36 749.27,1312.43 463.75,894.77 	"/>
	
		<linearGradient id="SVGID_28_" gradientUnits="userSpaceOnUse" x1="6536.0674" y1="-2303.0652" x2="13095.252" y2="-2303.0652" gradientTransform="matrix(0 -1.2412 1.2692 0 3029.1936 16185.5576)">
		<stop  offset="0" style="stop-color:#72C7B8"/>
		<stop  offset="1" style="stop-color:#2B75BA"/>
	</linearGradient>
	<polygon class="st39" points="0,6635.58 0,7130.77 83.65,7130.77 212.29,6946.21 	"/>
	
		<linearGradient id="SVGID_29_" gradientUnits="userSpaceOnUse" x1="5195.8779" y1="-4.8728" x2="8054.3608" y2="-3534.8052" gradientTransform="matrix(0.1066 -0.9943 0.9943 0.1066 2614.0693 15226.2715)">
		<stop  offset="4.926110e-03" style="stop-color:#A4509E"/>
		<stop  offset="0.2978" style="stop-color:#8C78B1;stop-opacity:0.7057"/>
		<stop  offset="0.6334" style="stop-color:#659AC7;stop-opacity:0.3684"/>
		<stop  offset="0.8765" style="stop-color:#38ADD4;stop-opacity:0.1241"/>
		<stop  offset="1" style="stop-color:#07B4D9;stop-opacity:0"/>
	</linearGradient>
	<polygon class="st40" points="0,6635.58 0,7130.77 83.65,7130.77 212.29,6946.21 	"/>
	<polygon class="st4" points="0,6635.58 0,7130.77 83.65,7130.77 212.29,6946.21 	"/>
	
		<linearGradient id="SVGID_30_" gradientUnits="userSpaceOnUse" x1="6536.0674" y1="-2220.4199" x2="13095.252" y2="-2220.4199" gradientTransform="matrix(0 -1.2412 1.2692 0 3029.1936 16185.5576)">
		<stop  offset="0" style="stop-color:#72C7B8"/>
		<stop  offset="1" style="stop-color:#2B75BA"/>
	</linearGradient>
	<polygon class="st41" points="83.65,7130.77 338.42,7130.77 212.29,6946.21 	"/>
	
		<radialGradient id="SVGID_31_" cx="8806.3086" cy="9217.4775" r="1774.5051" gradientTransform="matrix(-2.204807e-03 1.4323 -0.9938 -3.177585e-03 10352.3672 -4962.3262)" gradientUnits="userSpaceOnUse">
		<stop  offset="0" style="stop-color:#07B4D9;stop-opacity:0"/>
		<stop  offset="0.1235" style="stop-color:#38ADD4;stop-opacity:0.1241"/>
		<stop  offset="0.3666" style="stop-color:#659AC7;stop-opacity:0.3684"/>
		<stop  offset="0.7022" style="stop-color:#8C78B1;stop-opacity:0.7057"/>
		<stop  offset="0.9951" style="stop-color:#A4509E"/>
	</radialGradient>
	<polygon class="st42" points="83.65,7130.77 338.42,7130.77 212.29,6946.21 	"/>
	
		<linearGradient id="SVGID_32_" gradientUnits="userSpaceOnUse" x1="5478.6499" y1="-361.609" x2="8057.7505" y2="-3546.533" gradientTransform="matrix(0.1066 -0.9943 0.9943 0.1066 2614.0693 15226.2715)">
		<stop  offset="4.926110e-03" style="stop-color:#A4509E"/>
		<stop  offset="0.2978" style="stop-color:#8C78B1;stop-opacity:0.7057"/>
		<stop  offset="0.6334" style="stop-color:#659AC7;stop-opacity:0.3684"/>
		<stop  offset="0.8765" style="stop-color:#38ADD4;stop-opacity:0.1241"/>
		<stop  offset="1" style="stop-color:#07B4D9;stop-opacity:0"/>
	</linearGradient>
	<polygon class="st43" points="83.65,7130.77 338.42,7130.77 212.29,6946.21 	"/>
	<polygon class="st0" points="83.65,7130.77 338.42,7130.77 212.29,6946.21 	"/>
</g>
</svg>
