<?xml version="1.0" encoding="utf-8"?>
<!-- Generator: Adobe Illustrator 23.0.2, SVG Export Plug-In . SVG Version: 6.00 Build 0)  -->
<svg version="1.1" id="Layer_1" xmlns="http://www.w3.org/2000/svg" xmlns:xlink="http://www.w3.org/1999/xlink" x="0px" y="0px"
	 viewBox="0 0 215 215" style="enable-background:new 0 0 215 215;" xml:space="preserve">
<style type="text/css">
	.st0{fill:#3AC0C4;}
	.st1{fill:#474D4F;}
	.st2{fill:#BAE4EA;}
	.st3{fill:#FFFFFF;}
</style>
<title>beneficio1</title>
<g>
	<g>
		<circle class="st0" cx="107.5" cy="107.5" r="97.18"/>
		<path class="st1" d="M171.49,46.35h-128v87.3h128V46.35z M164.09,125.5H50.93V51.4h3.14v36.22l7.06-8.18l6.45,8.18V51.4h96.54
			L164.09,125.5z"/>
		<polygon class="st2" points="171.49,135.58 107.5,135.58 43.51,135.58 25.74,154.26 107.5,154.26 189.26,154.26 		"/>
		<rect x="71.43" y="57.54" class="st1" width="86.28" height="4.72"/>
		<rect x="71.43" y="71.83" class="st1" width="86.28" height="4.72"/>
		<rect x="71.43" y="86.12" class="st1" width="86.28" height="4.71"/>
		<rect x="71.43" y="100.4" class="st1" width="86.28" height="4.72"/>
		<rect x="71.43" y="114.69" class="st1" width="86.28" height="4.72"/>
		<path class="st3" d="M67.55,87.62l-6.45-8.18l-7.06,8.18V51.4h-3.11v74.1h113.16V51.4H67.55V87.62z M71.43,57.5h86.28v4.72H71.43
			V57.5z M71.43,71.79h86.28v4.72H71.43V71.79z M71.43,86.08h86.28v4.71H71.43V86.08z M71.43,100.36h86.28v4.72H71.43V100.36z
			 M71.43,114.65h86.28v4.72H71.43V114.65z"/>
	</g>
</g>
</svg>
