<?xml version="1.0" encoding="utf-8"?>
<!-- Generator: Adobe Illustrator 23.0.2, SVG Export Plug-In . SVG Version: 6.00 Build 0)  -->
<svg version="1.1" id="Layer_1" xmlns="http://www.w3.org/2000/svg" xmlns:xlink="http://www.w3.org/1999/xlink" x="0px" y="0px"
	 viewBox="0 0 215 215" style="enable-background:new 0 0 215 215;" xml:space="preserve">
<style type="text/css">
	.st0{fill:#38BFC3;}
	.st1{fill:#B9E3E9;}
	.st2{fill:#464D4F;}
	.st3{fill:#FFFFFF;}
</style>
<g>
	<ellipse class="st0" cx="107.5" cy="107.5" rx="96.2" ry="96.2"/>
	<g>
		<g>
			<path class="st1" d="M56.4,58.6V103l8.9-10.3l8.1,10.3V58.6c3,0.5,5.8,1.2,8.6,2.1V58c-5.4-1.8-11.2-2.7-17.1-2.7
				c-6,0-11.3,0.9-15.5,1.9V60C51.5,59.5,53.8,59,56.4,58.6z"/>
			<path class="st2" d="M177.1,69.6v-8.8l-0.8-0.4c-0.4-0.2-10.9-5.2-25.1-5.2c-16.8,0-31.7,7.1-43.2,20.6
				C96.6,62.4,81.7,55.3,64.9,55.3c-14.2,0-24.7,5-25.1,5.2L39,60.8v8.8h-3.5v1.7v91.5v1.6c0,0,36.9-20.3,71.4,0.3
				c0,0,0.4,0.4,0.6,0.3c0.2,0.1,0.6-0.3,0.6-0.3c4.3-2.6,8.7-4.5,13-5.9c4.2,10.8,13.6,16.6,13.6,16.6h26.4c0,0,4.2-6.7,6.4-15.8
				c7.3,2.4,11.9,4.8,11.9,4.8v-1.6V71.3v-1.7H177.1z M109.4,78.5C120.6,64.9,134.7,58,151.3,58c11.5,0,20.6,3.5,23.2,4.6v85.3
				c-1.9-0.9-3.8-1.6-5.7-2.3c-0.8-11.3-5.3-12.3-7-12.2c-0.1,1.6-0.1,3-0.2,4.3c-0.1,1.6-0.3,3-0.4,3.9c-0.1,0.9-0.2,1.5-0.2,1.5
				s-0.1-0.5-0.2-1.5c-0.1-0.9-0.2-2.3-0.4-3.9c-0.2-3-0.4-7-0.4-11c-2.1-5.3-6.6-4.2-8.4-3.6c0,4.8-0.2,9.6-0.4,13.2
				c-0.1,2-0.3,3.7-0.4,4.9c0,0.1,0,0.3,0,0.4c-0.1,0-0.2,0-0.3,0c0-0.1,0-0.2,0-0.4c-0.1-1.2-0.3-2.9-0.4-4.9
				c-0.2-4.1-0.4-9.5-0.4-14.9c0-1.4,0-2.7,0-4.1c-2.1-4.4-6.5-3.8-8.4-3.4c0,1.4,0,2.9,0,4.4c0,3.1,0,6.2-0.1,9.1
				c-0.1,2.9-0.2,5.6-0.3,7.9c-0.1,2.3-0.3,4.3-0.3,5.6c0,0.2,0,0.4-0.1,0.6c-0.1,0-0.2,0-0.3,0c0-0.2,0-0.4-0.1-0.6
				c-0.1-1.4-0.3-3.3-0.3-5.6s-0.2-5-0.3-7.9c-0.1-2.9-0.1-6-0.1-9.1c0-3.1,0-6.2,0.1-9.1c0.1-2.9,0.2-5.6,0.3-7.9
				c0-0.8,0.1-1.6,0.1-2.3c0-0.2-0.1-0.3-0.1-0.5c6.8-1.7,14.9-2.3,24-0.5l0.5-2.7c-9.7-1.9-18.2-1.2-25.4,0.6
				c-0.9-1.9-2.3-3.1-4.6-3.1c-2.2,0-3.6,2.6-4.4,6.2c-9.9,4.4-15.6,10.1-15.7,10.3l2,1.9c0.1-0.1,4.8-4.9,13.1-8.9
				c-1.1,7.7-0.7,17.8-0.6,21.3c0.2,4.9,0.3,16.2,0.3,19.8c-0.1,0-0.1,0-0.2,0.1l-3-15.9c-1.5-0.1-7.1,4.9-7.1,19.4
				c-4.4,1.9-7.7,3.9-9.7,5.3V82v-3L109.4,78.5L109.4,78.5z M41.7,62.5c1.9-0.8,7.2-2.9,14.8-4c4.2-0.6,12.8-0.6,17,0
				c13,2.1,24.1,8.6,33.3,19.9v1.6V82v70.2c-5-3.4-18.2-10.9-36.3-10.9c-9.7,0-19.3,2.2-28.8,6.6C41.7,147.9,41.7,62.5,41.7,62.5z
				 M108.1,160.4c0,0-24-20.9-67.7-4.8v-4.1l0.6-0.3c9.6-4.8,19.5-7.2,29.5-7.2c21.8,0,36.7,11.7,36.8,11.9l0.8,0.9l0.8-0.9
				c0.1-0.1,3.8-3,10.3-6c0.1,1.6,0.3,3.2,0.6,4.6C112.3,157.3,108.1,160.4,108.1,160.4z M168.7,153.2c0.1-1.3,0.2-2.6,0.2-4
				c0-0.3,0-0.5,0-0.8c2.1,0.8,4.2,1.7,6.3,2.8l0.6,0.3v4.1C173.4,154.6,171,153.9,168.7,153.2z"/>
			<path class="st2" d="M164.2,72.8l0.5-2.7c-30.6-6-49.9,13.8-50.1,14l2,1.9C116.8,85.8,135.1,67.1,164.2,72.8z"/>
			<path class="st2" d="M164.2,85.4l0.5-2.7c-30.6-6-49.9,13.8-50.1,14l2,1.9C116.8,98.4,135.1,79.7,164.2,85.4z"/>
		</g>
		<path class="st3" d="M108.9,155.8l-0.8,0.9l-0.8-0.9c-0.2-0.1-15-11.9-36.8-11.9c-9.9,0-19.9,2.4-29.5,7.2l-0.6,0.3v4.1
			c43.8-16.1,67.7,4.8,67.7,4.8s4.2-3.1,11.8-5.9c-0.3-1.5-0.6-3-0.6-4.6C112.7,152.8,109,155.8,108.9,155.8z"/>
		<path class="st3" d="M174.5,147.9V62.5c-2.6-1.1-11.7-4.6-23.2-4.6c-16.6,0-30.6,6.9-41.8,20.5V79v3v70.2c2-1.3,5.3-3.3,9.7-5.3
			c0.1-14.6,5.6-19.6,7.1-19.4l3,15.9c0.1,0,0.1,0,0.2-0.1c0-3.6-0.1-14.9-0.3-19.8c-0.1-3.4-0.6-13.6,0.6-21.3
			c-8.3,4-13,8.8-13.1,8.9l-2-1.9c0.1-0.1,5.7-5.9,15.7-10.3c0.9-3.7,2.3-6.2,4.4-6.2c2.3,0,3.7,1.2,4.6,3.1
			c7.2-1.8,15.7-2.5,25.4-0.6l-0.5,2.7c-9.1-1.8-17.2-1.2-24,0.5c0,0.2,0.1,0.3,0.1,0.5c0,0.7-0.1,1.5-0.1,2.3
			c-0.1,2.3-0.2,5-0.3,7.9c-0.1,2.9-0.1,6-0.1,9.1c0,3.1,0,6.2,0.1,9.1c0.1,2.9,0.2,5.6,0.3,7.9c0.1,2.3,0.3,4.3,0.3,5.6
			c0,0.2,0,0.4,0.1,0.6c0.1,0,0.2,0,0.3,0c0-0.2,0-0.4,0.1-0.6c0.1-1.4,0.3-3.3,0.3-5.6s0.2-5,0.3-7.9c0.1-2.9,0.1-6,0.1-9.1
			c0-1.5,0-2.9,0-4.4c1.9-0.5,6.3-1.1,8.4,3.4c0,1.3,0,2.7,0,4.1c0,5.4,0.2,10.8,0.4,14.9c0.1,2,0.3,3.7,0.4,4.9c0,0.1,0,0.2,0,0.4
			c0.1,0,0.2,0,0.3,0c0-0.1,0-0.2,0-0.4c0.1-1.2,0.3-2.9,0.4-4.9c0.2-3.6,0.4-8.3,0.4-13.2c1.7-0.6,6.3-1.7,8.4,3.6
			c0,4,0.2,8,0.4,11c0.1,1.6,0.3,3,0.4,3.9c0.1,0.9,0.2,1.5,0.2,1.5s0.1-0.5,0.2-1.5c0.1-0.9,0.3-2.3,0.4-3.9
			c0.1-1.3,0.2-2.8,0.2-4.3c1.7-0.1,6.2,0.9,7,12.2C170.7,146.2,172.6,147,174.5,147.9z M164.2,85.4c-29.1-5.7-47.4,13-47.6,13.2
			l-2-1.9c0.2-0.2,19.5-20,50.1-14L164.2,85.4z M164.2,72.8c-29.1-5.7-47.4,13-47.6,13.2l-2-1.9c0.2-0.2,19.5-20,50.1-14L164.2,72.8
			z"/>
		<path class="st3" d="M73.4,58.6v44.3l-8.1-10.3L56.4,103V58.6c-1.3,0.2-2.4,0.4-3.6,0.6c-0.1,0-0.3,0-0.4,0.1
			c-1.1,0.2-2.1,0.5-3.1,0.7v0c-3.8,1-6.5,2-7.7,2.5v85.3c9.4-4.4,19.1-6.6,28.8-6.6c18.1,0,31.3,7.5,36.3,10.9V82v-1.9v-1.6
			c-7.9-9.6-17.2-15.8-27.9-18.7c-0.2-0.1-0.5-0.2-0.7-0.2C76.6,59.2,75,58.9,73.4,58.6z"/>
		<path class="st3" d="M168.9,148.4c0,0.3,0,0.5,0,0.8c0,1.4-0.1,2.7-0.2,4c2.3,0.7,4.7,1.4,7.1,2.3v-4.1l-0.6-0.3
			C173.1,150.1,171,149.2,168.9,148.4z"/>
	</g>
</g>
</svg>
