<?xml version="1.0" encoding="utf-8"?>
<!-- Generator: Adobe Illustrator 23.0.2, SVG Export Plug-In . SVG Version: 6.00 Build 0)  -->
<svg version="1.1" id="Layer_1" xmlns="http://www.w3.org/2000/svg" xmlns:xlink="http://www.w3.org/1999/xlink" x="0px" y="0px"
	 viewBox="0 0 215 215" style="enable-background:new 0 0 215 215;" xml:space="preserve">
<style type="text/css">
	.st0{fill:#FFFFFF;}
	.st1{fill:#3AC0C4;}
	.st2{fill:#BAE4EA;}
	.st3{fill:#474D4F;}
	.st4{font-family:'BebasKai';}
	.st5{font-size:19.05px;}
</style>
<title>beneficio2</title>
<g>
	<g>
		<path class="st0" d="M114.75,145.04h10.33c2.32,0,4.2,1.88,4.2,4.2v10.33c0,2.32-1.88,4.2-4.2,4.2h-10.33
			c-2.32,0-4.2-1.88-4.2-4.2v-10.33C110.55,146.92,112.43,145.04,114.75,145.04z"/>
		<circle class="st1" cx="107.5" cy="107.5" r="98.43"/>
		<path class="st2" d="M56.42,44.5v29.4h102.15V44.5H56.42z M153.33,67.92H61.44V48.5h91.89V67.92z"/>
		<path class="st3" d="M56.42,170.5h102.15V75.68H56.42V170.5z M129.28,159.5c-0.01,2.32-1.88,4.19-4.2,4.2h-10.33
			c-2.32-0.01-4.19-1.88-4.2-4.2v-10.25c0.01-2.32,1.88-4.2,4.2-4.21h10.33c2.32,0.01,4.19,1.89,4.2,4.21V159.5z M134.93,87.16
			c0.01-2.32,1.88-4.19,4.2-4.2h10.33c2.32,0.01,4.19,1.88,4.2,4.2v5.34c-0.01,2.32-1.88,4.19-4.2,4.2h-10.33
			c-2.32-0.01-4.19-1.88-4.2-4.2V87.16z M134.93,104.41c0.01-2.32,1.88-4.19,4.2-4.2h10.33c2.32,0.01,4.19,1.88,4.2,4.2v10.33
			c-0.01,2.32-1.88,4.2-4.2,4.21h-10.33c-2.32-0.01-4.19-1.89-4.2-4.21V104.41z M134.93,126.79c0.01-2.32,1.88-4.19,4.2-4.2h10.33
			c2.32,0.01,4.19,1.88,4.2,4.2v32.71c-0.01,2.32-1.88,4.19-4.2,4.2h-10.33c-2.32-0.01-4.19-1.88-4.2-4.2V126.79z M110.55,87.16
			c0.01-2.32,1.88-4.19,4.2-4.2h10.33c2.32,0.01,4.19,1.88,4.2,4.2v5.34c-0.01,2.32-1.88,4.19-4.2,4.2h-10.33
			c-2.32-0.01-4.19-1.88-4.2-4.2L110.55,87.16z M110.55,104.41c0.01-2.32,1.89-4.19,4.21-4.2h10.33c2.32,0.01,4.19,1.88,4.2,4.2
			v10.33c-0.01,2.32-1.88,4.2-4.2,4.21h-10.34c-2.32-0.01-4.2-1.89-4.21-4.21L110.55,104.41z M110.55,126.79
			c0.01-2.32,1.89-4.19,4.21-4.2h10.33c2.32,0.01,4.19,1.88,4.2,4.2v10.41c-0.01,2.32-1.88,4.19-4.2,4.2h-10.34
			c-2.32-0.01-4.2-1.88-4.21-4.2L110.55,126.79z M86.17,87.16c0.01-2.32,1.88-4.19,4.2-4.2h10.33c2.32,0.01,4.19,1.88,4.2,4.2v5.34
			c-0.01,2.32-1.88,4.19-4.2,4.2H90.36c-2.32-0.01-4.19-1.88-4.2-4.2L86.17,87.16z M86.17,104.41c0.01-2.32,1.88-4.19,4.2-4.2h10.33
			c2.32,0.01,4.19,1.88,4.2,4.2v10.33c-0.01,2.32-1.88,4.2-4.2,4.21H90.36c-2.32-0.01-4.19-1.89-4.2-4.21L86.17,104.41z
			 M86.17,126.79c0.01-2.32,1.88-4.19,4.2-4.2h10.33c2.32,0.01,4.19,1.88,4.2,4.2v10.41c-0.01,2.32-1.88,4.19-4.2,4.2H90.36
			c-2.32-0.01-4.19-1.88-4.2-4.2L86.17,126.79z M86.17,149.17c0.01-2.32,1.88-4.2,4.2-4.21h10.33c2.32,0.01,4.19,1.89,4.2,4.21
			v10.33c-0.01,2.32-1.88,4.19-4.2,4.2H90.36c-2.32-0.01-4.19-1.88-4.2-4.2L86.17,149.17z M61.78,87.17
			c0.01-2.32,1.89-4.19,4.21-4.2h10.33c2.32,0.01,4.19,1.88,4.2,4.2v5.33c-0.01,2.32-1.88,4.19-4.2,4.2H65.98
			c-2.32-0.01-4.2-1.88-4.21-4.2L61.78,87.17z M61.78,104.42c0.01-2.32,1.89-4.19,4.21-4.2h10.33c2.32,0.01,4.19,1.88,4.2,4.2v10.33
			c-0.01,2.32-1.88,4.2-4.2,4.21H65.98c-2.32-0.01-4.2-1.89-4.21-4.21L61.78,104.42z M61.78,126.8c0.01-2.32,1.89-4.19,4.21-4.2
			h10.33c2.32,0.01,4.19,1.88,4.2,4.2v10.4c-0.01,2.32-1.88,4.19-4.2,4.2H65.98c-2.32-0.01-4.2-1.88-4.21-4.2L61.78,126.8z
			 M61.78,149.18c0.01-2.32,1.89-4.2,4.21-4.21h10.33c2.32,0.01,4.19,1.89,4.2,4.21v10.33c-0.01,2.32-1.88,4.19-4.2,4.2H65.98
			c-2.32-0.01-4.2-1.88-4.21-4.2L61.78,149.18z"/>
		<path class="st0" d="M114.74,122.67h10.33c2.32,0,4.2,1.88,4.2,4.2v10.33c0,2.32-1.88,4.2-4.2,4.2h-10.33
			c-2.32,0-4.2-1.88-4.2-4.2v-10.33C110.54,124.55,112.42,122.67,114.74,122.67z"/>
		<path class="st3" d="M138.49,166.85h11.64c2.6,0,4.73-4.57,4.73-10.15v-24.94c0-5.58-2.13-10.15-4.73-10.15h-11.64
			c-2.6,0-4.74,4.57-4.74,10.15v24.94C133.75,162.28,135.89,166.85,138.49,166.85z"/>
		<path class="st0" d="M114.74,100.29h10.33c2.32,0,4.2,1.88,4.2,4.2v10.34c0,2.32-1.88,4.2-4.2,4.2h-10.33
			c-2.32,0-4.2-1.88-4.2-4.2v-10.34C110.54,102.17,112.42,100.29,114.74,100.29z"/>
		<path class="st0" d="M114.75,145.04h10.33c2.32,0,4.2,1.88,4.2,4.2v10.33c0,2.32-1.88,4.2-4.2,4.2h-10.33
			c-2.32,0-4.2-1.88-4.2-4.2v-10.33C110.55,146.92,112.43,145.04,114.75,145.04z"/>
		<path class="st0" d="M90.36,100.29h10.33c2.32,0,4.2,1.88,4.2,4.2v10.34c0,2.32-1.88,4.2-4.2,4.2H90.36c-2.32,0-4.2-1.88-4.2-4.2
			v-10.34C86.16,102.17,88.04,100.29,90.36,100.29z"/>
		<path class="st0" d="M90.36,83.04h10.33c2.32,0,4.2,1.88,4.2,4.2v5.21c0,2.32-1.88,4.2-4.2,4.2H90.36c-2.32,0-4.2-1.88-4.2-4.2
			v-5.21C86.16,84.92,88.04,83.04,90.36,83.04z"/>
		<path class="st0" d="M90.36,122.67h10.33c2.32,0,4.2,1.88,4.2,4.2v10.33c0,2.32-1.88,4.2-4.2,4.2H90.36c-2.32,0-4.2-1.88-4.2-4.2
			v-10.33C86.16,124.55,88.04,122.67,90.36,122.67z"/>
		<path class="st0" d="M139.13,100.29h10.33c2.32,0,4.2,1.88,4.2,4.2v10.34c0,2.32-1.88,4.2-4.2,4.2h-10.33
			c-2.32,0-4.2-1.88-4.2-4.2v-10.34C134.93,102.17,136.81,100.29,139.13,100.29z"/>
		<path class="st0" d="M139.13,83.04h10.33c2.32,0,4.2,1.88,4.2,4.2v5.21c0,2.32-1.88,4.2-4.2,4.2h-10.33c-2.32,0-4.2-1.88-4.2-4.2
			v-5.21C134.93,84.92,136.81,83.04,139.13,83.04z"/>
		<path class="st0" d="M114.75,83.04h10.33c2.32,0,4.2,1.88,4.2,4.2v5.21c0,2.32-1.88,4.2-4.2,4.2h-10.33c-2.32,0-4.2-1.88-4.2-4.2
			v-5.21C110.55,84.92,112.43,83.04,114.75,83.04z"/>
		<path class="st0" d="M65.97,122.67h10.34c2.32,0,4.2,1.88,4.2,4.2v10.33c0,2.32-1.88,4.2-4.2,4.2H65.97c-2.32,0-4.2-1.88-4.2-4.2
			v-10.33C61.77,124.55,63.65,122.67,65.97,122.67z"/>
		<path class="st0" d="M65.97,145.04h10.34c2.32,0,4.2,1.88,4.2,4.2v10.33c0,2.32-1.88,4.2-4.2,4.2H65.97c-2.32,0-4.2-1.88-4.2-4.2
			v-10.33C61.77,146.92,63.65,145.04,65.97,145.04z"/>
		<path class="st0" d="M65.97,83.04h10.34c2.32,0,4.2,1.88,4.2,4.2v5.21c0,2.32-1.88,4.2-4.2,4.2H65.97c-2.32,0-4.2-1.88-4.2-4.2
			v-5.21C61.77,84.92,63.65,83.04,65.97,83.04z"/>
		<path class="st0" d="M65.97,100.29h10.34c2.32,0,4.2,1.88,4.2,4.2v10.34c0,2.32-1.88,4.2-4.2,4.2H65.97c-2.32,0-4.2-1.88-4.2-4.2
			v-10.34C61.77,102.17,63.65,100.29,65.97,100.29z"/>
		<path class="st0" d="M90.36,145.04h10.33c2.32,0,4.2,1.88,4.2,4.2v10.33c0,2.32-1.88,4.2-4.2,4.2H90.36c-2.32,0-4.2-1.88-4.2-4.2
			v-10.33C86.16,146.92,88.04,145.04,90.36,145.04z"/>
		<path class="st0" d="M137.95,122.67h10.33c2.32,0,4.2,1.88,4.2,4.2v10.33c0,2.32-1.88,4.2-4.2,4.2h-10.33
			c-2.32,0-4.2-1.88-4.2-4.2v-10.33C133.75,124.55,135.63,122.67,137.95,122.67z"/>
		<path class="st0" d="M137.95,145.04h10.33c2.32,0,4.2,1.88,4.2,4.2v10.33c0,2.32-1.88,4.2-4.2,4.2h-10.33
			c-2.32,0-4.2-1.88-4.2-4.2v-10.33C133.75,146.92,135.63,145.04,137.95,145.04z"/>
		<rect x="61.44" y="48.47" class="st0" width="91.89" height="19.4"/>
		<text transform="matrix(1 0 0 1 88.52 64.66)" class="st3 st4 st5">M</text>
		<text transform="matrix(1 0 0 1 99.24 64.66)" class="st3 st4 st5">A</text>
		<text transform="matrix(1 0 0 1 106.5 64.66)" class="st3 st4 st5">Y</text>
		<text transform="matrix(1 0 0 1 113.45 64.66)" class="st3 st4 st5">O</text>
	</g>
</g>
</svg>
