<?xml version="1.0" encoding="utf-8"?>
<!-- Generator: Adobe Illustrator 23.0.2, SVG Export Plug-In . SVG Version: 6.00 Build 0)  -->
<svg version="1.1" id="Layer_1" xmlns="http://www.w3.org/2000/svg" xmlns:xlink="http://www.w3.org/1999/xlink" x="0px" y="0px"
	 viewBox="0 0 215 215" style="enable-background:new 0 0 215 215;" xml:space="preserve">
<style type="text/css">
	.st0{fill:#38BFC3;}
	.st1{fill:#B9E3E9;}
	.st2{fill:#464D4F;}
	.st3{fill:#FFFFFF;}
</style>
<g>
	<ellipse class="st0" cx="107.5" cy="107.5" rx="96.23" ry="96.23"/>
	<g>
		<g>
			<path class="st1" d="M56.44,58.59v44.37L65.3,92.7l8.08,10.26V58.62c2.97,0.46,5.84,1.19,8.63,2.14V58
				c-5.43-1.77-11.15-2.69-17.13-2.69c-6,0-11.31,0.89-15.5,1.92V60C51.45,59.47,53.82,58.96,56.44,58.59z"/>
			<path class="st2" d="M177.13,69.61v-8.77l-0.75-0.36c-0.44-0.21-10.9-5.17-25.11-5.17c-16.8,0-31.69,7.14-43.19,20.64
				c-11.5-13.5-26.4-20.65-43.19-20.65c-14.21,0-24.67,4.96-25.11,5.17l-0.75,0.36v8.77h-3.47v1.65v91.46v1.65
				c0,0,36.93-20.34,71.38,0.25c0,0,0.38,0.45,0.57,0.34c0.19,0.12,0.57-0.34,0.57-0.34c4.32-2.58,8.68-4.52,13.01-5.94
				c4.16,10.8,13.65,16.61,13.65,16.61h26.42c0,0,4.23-6.73,6.45-15.76c7.34,2.35,11.86,4.84,11.86,4.84v-1.65V71.26v-1.65H177.13z
				 M109.41,78.47c11.22-13.6,25.3-20.5,41.85-20.5c11.46,0,20.59,3.47,23.2,4.57v85.32c-1.88-0.87-3.77-1.63-5.67-2.33
				c-0.81-11.31-5.31-12.26-7-12.2c-0.06,1.55-0.14,3.02-0.23,4.29c-0.1,1.62-0.27,2.97-0.35,3.91c-0.1,0.94-0.18,1.48-0.18,1.48
				s-0.08-0.54-0.18-1.48c-0.08-0.95-0.24-2.29-0.35-3.91c-0.22-3.02-0.36-6.99-0.38-11.02c-2.05-5.28-6.64-4.19-8.37-3.55
				c-0.03,4.83-0.17,9.55-0.38,13.19c-0.1,2.03-0.27,3.72-0.35,4.91c-0.01,0.14-0.02,0.25-0.03,0.38c-0.1-0.01-0.19-0.02-0.29-0.03
				c-0.01-0.12-0.02-0.22-0.03-0.35c-0.08-1.19-0.25-2.88-0.35-4.91c-0.23-4.07-0.38-9.48-0.39-14.9c0-1.36,0.01-2.72,0.03-4.05
				c-2.08-4.43-6.53-3.85-8.42-3.37c0.01,1.45,0.02,2.92,0.03,4.39c-0.02,3.09-0.03,6.18-0.11,9.07c-0.05,2.89-0.21,5.6-0.29,7.91
				c-0.08,2.32-0.26,4.25-0.34,5.6c-0.02,0.22-0.03,0.41-0.05,0.6c-0.08,0.01-0.17,0.01-0.25,0.02c-0.02-0.2-0.03-0.39-0.05-0.62
				c-0.07-1.35-0.26-3.28-0.34-5.6s-0.24-5.02-0.29-7.91c-0.08-2.9-0.09-5.98-0.11-9.07c0.02-3.09,0.03-6.18,0.11-9.07
				c0.06-2.9,0.21-5.6,0.29-7.91c0.03-0.82,0.07-1.58,0.12-2.29c-0.03-0.18-0.08-0.34-0.11-0.51c6.78-1.7,14.86-2.32,24-0.51
				l0.53-2.69c-9.66-1.9-18.19-1.22-25.35,0.59c-0.89-1.91-2.31-3.1-4.62-3.1c-2.2,0-3.58,2.56-4.45,6.23
				c-9.92,4.38-15.55,10.14-15.65,10.25l1.99,1.9c0.09-0.09,4.75-4.86,13.05-8.86c-1.1,7.7-0.68,17.81-0.55,21.25
				c0.19,4.87,0.3,16.19,0.33,19.79c-0.07,0.02-0.13,0.04-0.19,0.05l-3-15.95c-1.51-0.11-7.07,4.85-7.13,19.45
				c-4.4,1.93-7.73,3.93-9.72,5.27V82.01v-3v-0.54H109.41z M41.69,62.55c1.93-0.82,7.16-2.87,14.75-3.96
				c4.19-0.6,12.76-0.64,16.95,0.04c13.04,2.12,24.11,8.64,33.35,19.85v1.61v1.92v70.17c-5-3.36-18.23-10.89-36.3-10.89
				c-9.69,0-19.35,2.21-28.75,6.57C41.69,147.86,41.69,62.55,41.69,62.55z M108.07,160.35c0,0-23.96-20.88-67.72-4.8v-4.07l0.59-0.3
				c9.63-4.79,19.55-7.21,29.49-7.21c21.78,0,36.65,11.74,36.8,11.86l0.84,0.94l0.84-0.94c0.07-0.06,3.82-3.03,10.29-5.98
				c0.08,1.63,0.31,3.17,0.64,4.65C112.3,157.3,108.07,160.35,108.07,160.35z M168.7,153.2c0.14-1.32,0.23-2.65,0.23-4
				c0-0.27-0.01-0.51-0.02-0.78c2.11,0.81,4.21,1.72,6.29,2.75l0.59,0.3v4.07C173.38,154.64,171.01,153.87,168.7,153.2z"/>
			<path class="st2" d="M164.16,72.79l0.53-2.69c-30.57-6.02-49.87,13.77-50.06,13.97l1.99,1.9
				C116.8,85.77,135.1,67.06,164.16,72.79z"/>
			<path class="st2" d="M164.16,85.4l0.53-2.69c-30.57-6.02-49.87,13.77-50.06,13.97l1.99,1.9C116.8,98.38,135.1,79.67,164.16,85.4z
				"/>
		</g>
		<path class="st3" d="M108.91,155.83l-0.84,0.94l-0.84-0.94c-0.15-0.12-15.01-11.86-36.8-11.86c-9.94,0-19.86,2.43-29.49,7.21
			l-0.59,0.3v4.07c43.76-16.07,67.72,4.8,67.72,4.8s4.23-3.05,11.76-5.85c-0.33-1.48-0.56-3.02-0.64-4.65
			C112.73,152.8,108.98,155.77,108.91,155.83z"/>
		<path class="st3" d="M174.46,147.86V62.55c-2.61-1.11-11.73-4.57-23.2-4.57c-16.56,0-30.64,6.9-41.85,20.5v0.53v3v70.18
			c2-1.34,5.32-3.34,9.72-5.27c0.07-14.59,5.62-19.55,7.13-19.45l3,15.95c0.06-0.02,0.13-0.04,0.19-0.05
			c-0.03-3.6-0.14-14.91-0.33-19.79c-0.13-3.45-0.55-13.55,0.55-21.25c-8.3,4-12.96,8.76-13.05,8.86l-1.99-1.9
			c0.1-0.11,5.73-5.87,15.65-10.25c0.86-3.67,2.25-6.23,4.45-6.23c2.31,0,3.73,1.19,4.62,3.1c7.16-1.82,15.69-2.5,25.35-0.59
			l-0.53,2.69c-9.14-1.8-17.22-1.18-24,0.51c0.04,0.17,0.08,0.34,0.11,0.51c-0.04,0.72-0.09,1.47-0.12,2.29
			c-0.08,2.32-0.23,5.02-0.29,7.91c-0.08,2.89-0.09,5.98-0.11,9.07c0.02,3.09,0.03,6.18,0.11,9.07c0.05,2.9,0.21,5.6,0.29,7.91
			c0.08,2.32,0.26,4.25,0.34,5.6c0.02,0.23,0.04,0.42,0.05,0.62c0.08-0.01,0.17-0.01,0.25-0.02c0.02-0.19,0.03-0.37,0.05-0.6
			c0.08-1.35,0.26-3.28,0.34-5.6s0.24-5.02,0.29-7.91c0.08-2.89,0.09-5.98,0.11-9.07c-0.01-1.47-0.02-2.94-0.03-4.39
			c1.89-0.49,6.34-1.06,8.42,3.37c-0.02,1.33-0.03,2.69-0.03,4.05c0.01,5.42,0.16,10.84,0.39,14.9c0.1,2.03,0.27,3.72,0.35,4.91
			c0.01,0.13,0.02,0.24,0.03,0.35c0.1,0.01,0.2,0.02,0.29,0.03c0.01-0.13,0.02-0.24,0.03-0.38c0.08-1.19,0.25-2.88,0.35-4.91
			c0.21-3.64,0.35-8.35,0.38-13.19c1.73-0.64,6.31-1.73,8.37,3.55c0.02,4.03,0.16,7.99,0.38,11.02c0.1,1.62,0.27,2.97,0.35,3.91
			c0.1,0.94,0.18,1.48,0.18,1.48s0.08-0.54,0.18-1.48c0.08-0.95,0.25-2.29,0.35-3.91c0.09-1.28,0.17-2.75,0.23-4.29
			c1.69-0.06,6.2,0.89,7,12.2C170.69,146.23,172.58,146.99,174.46,147.86z M164.16,85.4c-29.06-5.72-47.37,12.99-47.55,13.18
			l-1.99-1.9c0.19-0.2,19.49-20,50.06-13.97L164.16,85.4z M164.16,72.79c-29.06-5.72-47.37,12.99-47.55,13.17l-1.99-1.9
			c0.19-0.2,19.49-20,50.06-13.97L164.16,72.79z"/>
		<path class="st3" d="M73.38,58.62v44.33L65.3,92.7l-8.86,10.26V58.59c-1.25,0.18-2.43,0.39-3.56,0.62
			c-0.13,0.03-0.25,0.05-0.38,0.08c-1.1,0.23-2.14,0.47-3.11,0.72V60c-3.78,0.97-6.45,2.02-7.7,2.55v85.32
			c9.4-4.36,19.06-6.57,28.75-6.57c18.07,0,31.3,7.53,36.3,10.89V82.01v-1.92v-1.61c-7.93-9.62-17.21-15.76-27.92-18.65
			c-0.24-0.07-0.48-0.15-0.72-0.21C76.56,59.21,74.99,58.88,73.38,58.62z"/>
		<path class="st3" d="M168.91,148.43c0,0.26,0.02,0.5,0.02,0.78c0,1.35-0.09,2.68-0.23,4c2.32,0.66,4.68,1.44,7.1,2.34v-4.07
			l-0.59-0.3C173.12,150.15,171.02,149.24,168.91,148.43z"/>
	</g>
</g>
</svg>
