<?xml version="1.0" encoding="utf-8"?>
<!-- Generator: Adobe Illustrator 23.0.2, SVG Export Plug-In . SVG Version: 6.00 Build 0)  -->
<svg version="1.1" id="Layer_1" xmlns="http://www.w3.org/2000/svg" xmlns:xlink="http://www.w3.org/1999/xlink" x="0px" y="0px"
	 viewBox="0 0 215 215" style="enable-background:new 0 0 215 215;" xml:space="preserve">
<style type="text/css">
	.st0{fill:#3AC0C4;}
	.st1{fill:#474D4F;}
	.st2{fill:#BAE4EA;}
	.st3{fill:#FFFFFF;}
</style>
<title>beneficio3</title>
<g>
	<g>
		<circle class="st0" cx="107.5" cy="107.5" r="96.71"/>
		<path class="st1" d="M186.59,69.83l-0.4-1.31c-6.26-18.25-14.52-26.52-32.77-32.77l-1.3-0.44l-0.93,1
			c-36.33,40.46-74.81,78.94-115.28,115.26l-1,0.93l0.45,1.31c6.24,18.25,14.52,26.52,32.76,32.77l1.31,0.44l0.93-1
			c13.11-14.67,26.41-28.93,39.9-42.8l1.13,6.32l15.61-2.82l-3.12-17.36c0.8-0.81,1.6-1.63,2.42-2.44l13.44,6l6.45-14.5l-7.77-3.45
			c15.33-14.97,31.04-29.69,47.13-44.18L186.59,69.83z M115.78,94.13l0.39,0.29h2h1.13l0.64,0.94l1.14,1.63l1.91,0.59l1.08,0.32
			l0.33,1.06l0.58,1.93l1.64,1.13l0.92,0.65v1.13l-0.05,2l1.21,1.58l0.68,0.92l-0.37,1.06l-0.66,1.88l0.66,1.9l0.37,1l-0.14,0.2
			l12.79,5.68l-3.84,8.73l-13.53-6l-0.21,0.72l-0.33,1.06l-1.08,0.32l-1.91,0.59l-0.88,1.27l1,5.42l2.18,12.1l-9.41,1.69l-1-5.44
			l0,0l-2.1-11.63l-0.12-0.05l-1.89,0.67l-1.06,0.37l-0.89-0.69l-1.61-1.21l-2,0.05l-1.16,0.03l-0.64-0.94l-1.14-1.63l-1.91-0.59
			l-1.09-0.32l-0.32-1.06l-0.58-1.93l-1.64-1.14l-0.93-0.64v-1.13l0.05-2l-0.31-0.4L44.9,165.02c-2.08-3.57-3.81-7.33-5.15-11.24
			c19.68-17.73,38.63-35.68,57.08-54.1l0.23-0.77l0.32-1.06l1.09-0.32l0.76-0.25c18.44-18.47,36.39-37.41,54.09-57.09
			c3.91,1.34,7.67,3.07,11.24,5.16L115.78,94.13z"/>
		<polygon class="st2" points="114.27,95.61 114.27,95.61 113.31,94.89 110.73,95.78 108.15,94.89 105.97,96.52 103.25,96.47 
			101.68,98.72 99.07,99.51 98.28,102.13 96.04,103.68 96.1,106.4 94.44,108.6 95.35,111.17 94.44,113.73 96.1,115.93 96.04,118.65 
			98.28,120.2 99.07,122.82 101.68,123.61 103.25,125.86 105.97,125.81 108.15,127.44 110.47,126.65 110.47,126.65 110.73,126.55 
			113.31,127.44 115.48,125.81 118.21,125.86 119.67,123.76 119.67,123.76 119.77,123.61 122.38,122.82 123.18,120.2 125.42,118.65 
			125.36,115.93 127.01,113.73 126.11,111.17 127.01,108.6 125.36,106.4 125.42,103.68 123.18,102.13 122.38,99.51 119.77,98.72 
			118.21,96.47 115.48,96.52 		"/>
		<path class="st3" d="M99.19,97.26l-0.76,0.25l-1.09,0.32l-0.32,1.06l-0.23,0.77c-18.45,18.42-37.4,36.37-57.08,54.1
			c1.35,3.92,3.09,7.69,5.19,11.26l48.78-48.8l0.31,0.4l-0.05,2v1.13l0.93,0.64l1.64,1.14l0.58,1.93l0.32,1.06l1.09,0.32l1.91,0.59
			l1.14,1.63l0.64,0.94h1.12l2-0.05l1.61,1.21l0.89,0.69l1.06-0.37l1.89-0.67l0.12,0.05l2.1,11.63l1,5.44l9.41-1.69l-2.2-12.14
			l-1-5.42l0.88-1.27l1.91-0.59l1.08-0.32l0.33-1.06l0.21-0.72l13.53,6l3.89-8.77l-12.83-5.65l0.14-0.2l-0.37-1l-0.66-1.9l0.66-1.88
			l0.37-1.06l-0.68-0.92l-1.21-1.58l0.05-2v-1.13l-0.92-0.65l-1.64-1.13l-0.58-1.93l-0.33-1.06l-1.08-0.32l-1.91-0.59l-1.14-1.63
			l-0.64-0.94h-1.13h-2l-0.39-0.29l48.78-48.8c-3.57-2.09-7.33-3.82-11.24-5.16C135.62,59.85,117.67,78.79,99.19,97.26z
			 M118.19,96.47l1.56,2.25l2.61,0.79l0.79,2.62l2.25,1.56l-0.06,2.71l1.65,2.2l-0.9,2.57l0.9,2.56l-1.65,2.2l0.06,2.72l-2.21,1.55
			l-0.79,2.62l-2.61,0.79l-0.1,0.15l-1.46,2.1l-2.73-0.05l-2.17,1.63l-2.58-0.89l-0.26,0.1l-2.32,0.79l-2.18-1.63l-2.72,0.05
			l-1.57-2.25l-2.61-0.79l-0.79-2.62l-2.24-1.55l0.06-2.72l-1.66-2.2l0.91-2.56l-0.91-2.57l1.66-2.2l-0.06-2.71l2.24-1.56l0.79-2.62
			l2.61-0.79l1.57-2.25l2.72,0.05l2.18-1.63l2.58,0.89l2.58-0.89l1,0.72l1.21,0.91L118.19,96.47z"/>
	</g>
</g>
</svg>
