<?xml version="1.0" encoding="utf-8"?>
<!-- Generator: Adobe Illustrator 23.0.2, SVG Export Plug-In . SVG Version: 6.00 Build 0)  -->
<svg version="1.1" id="Layer_1" xmlns="http://www.w3.org/2000/svg" xmlns:xlink="http://www.w3.org/1999/xlink" x="0px" y="0px"
	 viewBox="0 0 400 400" style="enable-background:new 0 0 400 400;" xml:space="preserve">
<style type="text/css">
	.st0{fill:#27AAE1;}
	.st1{fill:#5492CD;}
	.st2{fill:#52C2D1;}
	.st3{fill:#4451A3;}
	.st4{fill:#5785C5;}
	.st5{fill:url(#SVGID_1_);}
	.st6{fill:url(#SVGID_2_);}
	.st7{fill:#4456A6;}
	.st8{fill:url(#SVGID_3_);}
	.st9{fill:#FFFFFF;}
	.st10{opacity:0.3;fill:#FFFFFF;}
	.st11{fill:#F3F8F8;}
	.st12{fill:#29C0D3;}
	.st13{fill:#FFD450;}
	.st14{fill:#ECEEEF;}
	.st15{fill:#2DC0D3;}
	.st16{fill:#4B81C2;}
	.st17{fill:#1A1613;}
	.st18{fill:#FFEFCD;}
	.st19{fill:#2D337F;}
	.st20{fill:#3C4EA1;}
	.st21{fill:#474D4F;}
	.st22{fill:#BAE4EA;}
	.st23{fill:url(#SVGID_12_);}
	.st24{fill:url(#SVGID_13_);}
	.st25{fill:url(#SVGID_14_);}
	.st26{fill:url(#SVGID_15_);}
	.st27{fill:url(#SVGID_16_);}
	.st28{fill:url(#SVGID_17_);}
	.st29{fill:url(#SVGID_18_);}
	.st30{fill:url(#SVGID_19_);}
	.st31{fill:url(#SVGID_20_);}
	.st32{fill:url(#SVGID_21_);}
	.st33{fill:url(#SVGID_22_);}
	.st34{fill:url(#SVGID_23_);}
	.st35{fill:url(#SVGID_24_);}
	.st36{fill:url(#SVGID_25_);}
	.st37{fill:url(#SVGID_26_);}
	.st38{fill:url(#SVGID_27_);}
	.st39{fill:url(#SVGID_28_);}
	.st40{fill:url(#SVGID_29_);}
	.st41{fill:url(#SVGID_30_);}
	.st42{fill:url(#SVGID_31_);}
	.st43{fill:url(#SVGID_32_);}
	.st44{fill:url(#SVGID_33_);}
	.st45{fill:url(#SVGID_34_);}
	.st46{fill:url(#SVGID_35_);}
	.st47{fill:url(#SVGID_36_);}
	.st48{fill:url(#SVGID_37_);}
	.st49{fill:url(#SVGID_38_);}
	.st50{fill:url(#SVGID_39_);}
	.st51{fill:none;}
</style>
<path class="st9" d="M315.06,25.08H85.74c-32.88,0-59.54,26.66-59.54,59.54v229.32c0,32.88,26.65,59.53,59.54,59.53h125.68V239.71
	h-45.01v-52.13h45.01v-38.44c0-44.61,27.25-68.9,67.04-68.9c19.07,0,35.45,1.42,40.23,2.05v46.63l-27.6,0.01
	c-21.65,0-25.83,10.28-25.83,25.38v33.28h51.62l-6.72,52.13h-44.9v133.75h49.81c32.88,0,59.53-26.65,59.53-59.53V84.62
	C374.59,51.74,347.94,25.08,315.06,25.08z"/>
</svg>
