<?xml version="1.0" encoding="utf-8"?>
<!-- Generator: Adobe Illustrator 23.0.2, SVG Export Plug-In . SVG Version: 6.00 Build 0)  -->
<svg version="1.1" id="Layer_1" xmlns="http://www.w3.org/2000/svg" xmlns:xlink="http://www.w3.org/1999/xlink" x="0px" y="0px"
	 viewBox="0 0 400 400" style="enable-background:new 0 0 400 400;" xml:space="preserve">
<style type="text/css">
	.st0{fill:#27AAE1;}
	.st1{fill:#5492CD;}
	.st2{fill:#52C2D1;}
	.st3{fill:#4451A3;}
	.st4{fill:#5785C5;}
	.st5{fill:url(#SVGID_1_);}
	.st6{fill:url(#SVGID_2_);}
	.st7{fill:#4456A6;}
	.st8{fill:url(#SVGID_3_);}
	.st9{fill:#FFFFFF;}
	.st10{opacity:0.3;fill:#FFFFFF;}
	.st11{fill:#F3F8F8;}
	.st12{fill:#29C0D3;}
	.st13{fill:#FFD450;}
	.st14{fill:#ECEEEF;}
	.st15{fill:#2DC0D3;}
	.st16{fill:#4B81C2;}
	.st17{fill:#1A1613;}
	.st18{fill:#FFEFCD;}
	.st19{fill:#2D337F;}
	.st20{fill:#3C4EA1;}
	.st21{fill:#474D4F;}
	.st22{fill:#BAE4EA;}
	.st23{fill:url(#SVGID_12_);}
	.st24{fill:url(#SVGID_13_);}
	.st25{fill:url(#SVGID_14_);}
	.st26{fill:url(#SVGID_15_);}
	.st27{fill:url(#SVGID_16_);}
	.st28{fill:url(#SVGID_17_);}
	.st29{fill:url(#SVGID_18_);}
	.st30{fill:url(#SVGID_19_);}
	.st31{fill:url(#SVGID_20_);}
	.st32{fill:url(#SVGID_21_);}
	.st33{fill:url(#SVGID_22_);}
	.st34{fill:url(#SVGID_23_);}
	.st35{fill:url(#SVGID_24_);}
	.st36{fill:url(#SVGID_25_);}
	.st37{fill:url(#SVGID_26_);}
	.st38{fill:url(#SVGID_27_);}
	.st39{fill:url(#SVGID_28_);}
	.st40{fill:url(#SVGID_29_);}
	.st41{fill:url(#SVGID_30_);}
	.st42{fill:url(#SVGID_31_);}
	.st43{fill:url(#SVGID_32_);}
	.st44{fill:url(#SVGID_33_);}
	.st45{fill:url(#SVGID_34_);}
	.st46{fill:url(#SVGID_35_);}
	.st47{fill:url(#SVGID_36_);}
	.st48{fill:url(#SVGID_37_);}
	.st49{fill:url(#SVGID_38_);}
	.st50{fill:url(#SVGID_39_);}
	.st51{fill:none;}
</style>
<g>
	<path class="st51" d="M278.61,106.07c-9.15,0-16.57,7.42-16.57,16.57c0,9.14,7.42,16.56,16.57,16.56c9.15,0,16.56-7.42,16.56-16.56
		C295.17,113.48,287.75,106.07,278.61,106.07z"/>
	<path class="st51" d="M200,120.18c-44.02,0-79.82,35.8-79.82,79.82c0,44.01,35.8,79.83,79.82,79.83
		c44.02,0,79.82-35.81,79.82-79.83C279.82,155.98,244.02,120.18,200,120.18z M200,259.9c-33.03,0-59.9-26.87-59.9-59.89
		c0-33.03,26.87-59.9,59.9-59.9c33.03,0,59.89,26.87,59.89,59.9C259.9,233.03,233.03,259.9,200,259.9z"/>
	<path class="st51" d="M255.71,61.24H144.29c-49.45,0-89.68,40.23-89.68,89.68v98.18c0,49.45,40.23,89.68,89.68,89.68h111.41
		c49.44,0,89.68-40.23,89.68-89.68v-98.18C345.38,101.46,305.15,61.24,255.71,61.24z M325.45,249.09
		c0,38.46-31.29,69.75-69.74,69.75H144.29c-38.46,0-69.75-31.29-69.75-69.75v-98.18c0-38.46,31.29-69.74,69.75-69.74h111.41
		c38.46,0,69.74,31.29,69.74,69.74V249.09z"/>
	<path class="st9" d="M200,140.1c-33.03,0-59.9,26.87-59.9,59.9c0,33.02,26.87,59.89,59.9,59.89c33.03,0,59.89-26.87,59.89-59.89
		C259.9,166.97,233.03,140.1,200,140.1z"/>
	<path class="st9" d="M315.14,25.08H84.86c-33.02,0-59.78,26.76-59.78,59.78v230.27c0,33.02,26.76,59.79,59.78,59.79h230.28
		c33.02,0,59.78-26.76,59.78-59.79V84.86C374.92,51.84,348.16,25.08,315.14,25.08z M345.38,249.09c0,49.45-40.23,89.68-89.68,89.68
		H144.29c-49.45,0-89.68-40.23-89.68-89.68v-98.18c0-49.45,40.23-89.68,89.68-89.68h111.41c49.44,0,89.68,40.23,89.68,89.68V249.09z
		"/>
	<path class="st9" d="M255.71,81.17H144.29c-38.46,0-69.75,31.29-69.75,69.74v98.18c0,38.46,31.29,69.75,69.75,69.75h111.41
		c38.46,0,69.74-31.29,69.74-69.75v-98.18C325.45,112.45,294.16,81.17,255.71,81.17z M200,279.83c-44.02,0-79.82-35.81-79.82-79.83
		c0-44.02,35.8-79.82,79.82-79.82c44.02,0,79.82,35.8,79.82,79.82C279.82,244.02,244.02,279.83,200,279.83z M278.61,139.19
		c-9.15,0-16.57-7.42-16.57-16.56c0-9.15,7.42-16.57,16.57-16.57c9.15,0,16.56,7.42,16.56,16.57
		C295.17,131.78,287.75,139.19,278.61,139.19z"/>
</g>
</svg>
