<?xml version="1.0" encoding="utf-8"?>
<!-- Generator: Adobe Illustrator 23.0.2, SVG Export Plug-In . SVG Version: 6.00 Build 0)  -->
<svg version="1.1" id="Layer_1" xmlns="http://www.w3.org/2000/svg" xmlns:xlink="http://www.w3.org/1999/xlink" x="0px" y="0px"
	 viewBox="0 0 400 400" style="enable-background:new 0 0 400 400;" xml:space="preserve">
<style type="text/css">
	.st0{fill:#27AAE1;}
	.st1{fill:#5492CD;}
	.st2{fill:#52C2D1;}
	.st3{fill:#4451A3;}
	.st4{fill:#5785C5;}
	.st5{fill:url(#SVGID_1_);}
	.st6{fill:url(#SVGID_2_);}
	.st7{fill:#4456A6;}
	.st8{fill:url(#SVGID_3_);}
	.st9{fill:#FFFFFF;}
	.st10{opacity:0.3;fill:#FFFFFF;}
	.st11{fill:#F3F8F8;}
	.st12{fill:#29C0D3;}
	.st13{fill:#FFD450;}
	.st14{fill:#ECEEEF;}
	.st15{fill:#2DC0D3;}
	.st16{fill:#4B81C2;}
	.st17{fill:#1A1613;}
	.st18{fill:#FFEFCD;}
	.st19{fill:#2D337F;}
	.st20{fill:#3C4EA1;}
	.st21{fill:#474D4F;}
	.st22{fill:#BAE4EA;}
	.st23{fill:url(#SVGID_12_);}
	.st24{fill:url(#SVGID_13_);}
	.st25{fill:url(#SVGID_14_);}
	.st26{fill:url(#SVGID_15_);}
	.st27{fill:url(#SVGID_16_);}
	.st28{fill:url(#SVGID_17_);}
	.st29{fill:url(#SVGID_18_);}
	.st30{fill:url(#SVGID_19_);}
	.st31{fill:url(#SVGID_20_);}
	.st32{fill:url(#SVGID_21_);}
	.st33{fill:url(#SVGID_22_);}
	.st34{fill:url(#SVGID_23_);}
	.st35{fill:url(#SVGID_24_);}
	.st36{fill:url(#SVGID_25_);}
	.st37{fill:url(#SVGID_26_);}
	.st38{fill:url(#SVGID_27_);}
	.st39{fill:url(#SVGID_28_);}
	.st40{fill:url(#SVGID_29_);}
	.st41{fill:url(#SVGID_30_);}
	.st42{fill:url(#SVGID_31_);}
	.st43{fill:url(#SVGID_32_);}
	.st44{fill:url(#SVGID_33_);}
	.st45{fill:url(#SVGID_34_);}
	.st46{fill:url(#SVGID_35_);}
	.st47{fill:url(#SVGID_36_);}
	.st48{fill:url(#SVGID_37_);}
	.st49{fill:url(#SVGID_38_);}
	.st50{fill:url(#SVGID_39_);}
	.st51{fill:none;}
</style>
<g>
	<path class="st51" d="M303.21,130.12l0.17-1.01c4.94-3.96,17.41-16.1,19.06-21.78c0.71-2.43-0.11-3.27-0.13-3.37
		c0.06,1.33,0,0.14,0,0c0,0-0.01-0.01-0.01-0.01l-15.92,6.76l-13.32,6.01c-9.2-9.74-23.12-15.94-38.69-15.94
		c-27.7,0-50.16,19.62-50.16,43.83c0,4.43,0.66,12.5,2.05,16.54c0.05-1.27,0,1.27,0,0c-17.84-0.49-40.7-7.81-61.06-18.12
		c-40.16-20.34-42.68-34.43-42.68-34.43c-6.31,6.7-9.56,28.87-3.17,46.26c4.09,11.13,18.16,21.12,18.16,21.12s-6.29,0.11-12.88-2.11
		c-6.59-2.23-9.08-4.43-9.08-4.43c-3.92,9.55,3.94,26.62,17.53,38.87c7.92,7.14,22.39,11.62,22.39,11.62l-22.6,0.64
		c-1.27,21.97,46.07,35.02,46.07,35.02c-13.88,10.67-29.98,17.17-47.23,17.17c-8.94,0-17.59-1.34-25.79-3.79
		c22.8,18.79,52.1,31.76,83.97,30.08c84.53-4.45,132.25-77.11,134.52-148.47l0.11,0.15c0,0,3.96-1.98,12.43-10.45
		c8.46-8.47,13.73-18.37,13.73-18.37s-12.66,5.5-17.97,6.97C307.39,130.35,303.21,130.12,303.21,130.12z"/>
	<path class="st9" d="M315.13,25.08H84.86c-33.02,0-59.78,26.76-59.78,59.78v230.27c0,33.02,26.76,59.79,59.78,59.79h230.27
		c33.02,0,59.79-26.76,59.79-59.79V84.86C374.92,51.85,348.15,25.08,315.13,25.08z M316.94,140.29
		c-8.47,8.47-12.43,10.45-12.43,10.45l-0.11-0.15c-2.27,71.36-49.99,144.02-134.52,148.47c-31.86,1.67-61.17-11.3-83.97-30.08
		c8.2,2.45,16.85,3.79,25.79,3.79c17.26,0,33.36-6.5,47.23-17.17c0,0-47.34-13.05-46.07-35.02l22.6-0.64c0,0-14.47-4.48-22.39-11.62
		c-13.59-12.24-21.45-29.31-17.53-38.87c0,0,2.49,2.21,9.08,4.43c6.59,2.23,12.88,2.11,12.88,2.11s-14.07-9.99-18.16-21.12
		c-6.39-17.39-3.14-39.57,3.17-46.26c0,0,2.51,14.09,42.68,34.43c20.36,10.32,43.22,17.63,61.06,18.12
		c-1.39-4.03-2.05-12.11-2.05-16.54c0-24.22,22.46-43.83,50.16-43.83c15.57,0,29.49,6.2,38.69,15.94l13.32-6.01l15.92-6.76
		c0,0,0,0.01,0.01,0.01v0c0,0,0,0,0,0c0.02,0.1,0.84,0.95,0.13,3.37c-1.65,5.68-14.12,17.82-19.06,21.78l-0.17,1.01
		c0,0,4.18,0.23,9.49-1.24c5.31-1.47,17.97-6.97,17.97-6.97S325.41,131.83,316.94,140.29z"/>
	<path class="st20" d="M206.26,161.16C206.26,162.43,206.31,159.89,206.26,161.16L206.26,161.16z"/>
	<path class="st20" d="M322.31,103.97C322.31,103.96,322.31,103.97,322.31,103.97L322.31,103.97
		C322.31,104.1,322.37,105.3,322.31,103.97z"/>
</g>
</svg>
