<?xml version="1.0" encoding="utf-8"?>
<!-- Generator: Adobe Illustrator 23.0.2, SVG Export Plug-In . SVG Version: 6.00 Build 0)  -->
<svg version="1.1" id="Layer_1" xmlns="http://www.w3.org/2000/svg" xmlns:xlink="http://www.w3.org/1999/xlink" x="0px" y="0px"
	 viewBox="0 0 400 400" style="enable-background:new 0 0 400 400;" xml:space="preserve">
<style type="text/css">
	.st0{fill:#27AAE1;}
	.st1{fill:#5492CD;}
	.st2{fill:#52C2D1;}
	.st3{fill:#4451A3;}
	.st4{fill:#5785C5;}
	.st5{fill:url(#SVGID_1_);}
	.st6{fill:url(#SVGID_2_);}
	.st7{fill:#4456A6;}
	.st8{fill:url(#SVGID_3_);}
	.st9{fill:#FFFFFF;}
	.st10{opacity:0.3;fill:#FFFFFF;}
	.st11{fill:#F3F8F8;}
	.st12{fill:#29C0D3;}
	.st13{fill:#FFD450;}
	.st14{fill:#ECEEEF;}
	.st15{fill:#2DC0D3;}
	.st16{fill:#4B81C2;}
	.st17{fill:#1A1613;}
	.st18{fill:#FFEFCD;}
	.st19{fill:#2D337F;}
	.st20{fill:#3C4EA1;}
	.st21{fill:#474D4F;}
	.st22{fill:#BAE4EA;}
	.st23{fill:url(#SVGID_12_);}
	.st24{fill:url(#SVGID_13_);}
	.st25{fill:url(#SVGID_14_);}
	.st26{fill:url(#SVGID_15_);}
	.st27{fill:url(#SVGID_16_);}
	.st28{fill:url(#SVGID_17_);}
	.st29{fill:url(#SVGID_18_);}
	.st30{fill:url(#SVGID_19_);}
	.st31{fill:url(#SVGID_20_);}
	.st32{fill:url(#SVGID_21_);}
	.st33{fill:url(#SVGID_22_);}
	.st34{fill:url(#SVGID_23_);}
	.st35{fill:url(#SVGID_24_);}
	.st36{fill:url(#SVGID_25_);}
	.st37{fill:url(#SVGID_26_);}
	.st38{fill:url(#SVGID_27_);}
	.st39{fill:url(#SVGID_28_);}
	.st40{fill:url(#SVGID_29_);}
	.st41{fill:url(#SVGID_30_);}
	.st42{fill:url(#SVGID_31_);}
	.st43{fill:url(#SVGID_32_);}
	.st44{fill:url(#SVGID_33_);}
	.st45{fill:url(#SVGID_34_);}
	.st46{fill:url(#SVGID_35_);}
	.st47{fill:url(#SVGID_36_);}
	.st48{fill:url(#SVGID_37_);}
	.st49{fill:url(#SVGID_38_);}
	.st50{fill:url(#SVGID_39_);}
	.st51{fill:none;}
</style>
<g>
	<path class="st51" d="M200,66.05c-73.86,0-133.95,60.09-133.95,133.95c0,28.53,8.86,55.64,25.68,78.68L81,333.95l52.19-17.98
		c20.37,11.78,43.36,17.98,66.81,17.98c73.86,0,133.95-60.09,133.95-133.95C333.95,126.14,273.86,66.05,200,66.05z M200,314.02
		c-21.3,0-42.17-6.03-60.37-17.43l-4.03-2.53l-28.46,9.8l5.86-30.2l-2.8-3.58C94.36,249.81,85.98,225.58,85.98,200
		c0-62.87,51.15-114.02,114.02-114.02c62.87,0,114.02,51.15,114.02,114.02S262.87,314.02,200,314.02z"/>
	<path class="st51" d="M268.98,230.31c0,0-22.96-11.44-28.26-13.86c-5.31-2.42-8.51,1.7-8.51,1.7s-9.94,12.43-11.78,14.26
		c-1.83,1.83-4.71,1.44-4.71,1.44s-20.13-7.48-30.61-17.97c-10.5-10.49-15.57-18.67-18.84-23.12s0-8.64,0-8.64s5.89-5.88,8.5-9.94
		c2.62-4.05,0.92-8.24,0.92-8.24s-9.95-24.34-12.17-28.53c-2.22-4.19-10.47-4.19-16.88-3.4c-6.41,0.79-14.26,14.53-14.26,14.53
		c-4.84,7.11-5.36,14.92-1.44,32.19c3.92,17.27,20.54,36.24,39.25,54.96c18.71,18.71,53.82,30.71,68.57,30.71
		c14.74,0,24.56-10.34,27.91-13.7c3.36-3.36,5-13.28,5-17.34C271.67,231.3,268.98,230.31,268.98,230.31z"/>
	<path class="st9" d="M200,85.98c-62.87,0-114.02,51.15-114.02,114.02c0,25.58,8.38,49.82,24.22,70.09l2.8,3.58l-5.86,30.2
		l28.46-9.8l4.03,2.53c18.2,11.4,39.07,17.43,60.37,17.43c62.87,0,114.02-51.15,114.02-114.02S262.87,85.98,200,85.98z
		 M266.67,252.69c-3.35,3.36-13.17,13.7-27.91,13.7c-14.75,0-49.86-12-68.57-30.71c-18.71-18.71-35.33-37.69-39.25-54.96
		c-3.93-17.27-3.4-25.08,1.44-32.19c0,0,7.86-13.74,14.26-14.53c6.41-0.79,14.66-0.79,16.88,3.4c2.22,4.18,12.17,28.53,12.17,28.53
		s1.7,4.19-0.92,8.24c-2.61,4.06-8.5,9.94-8.5,9.94s-3.27,4.19,0,8.64s8.34,12.62,18.84,23.12c10.48,10.49,30.61,17.97,30.61,17.97
		s2.88,0.39,4.71-1.44c1.83-1.83,11.78-14.26,11.78-14.26s3.2-4.12,8.51-1.7c5.3,2.42,28.26,13.86,28.26,13.86s2.68,0.98,2.68,5.04
		C271.67,239.41,270.03,249.33,266.67,252.69z"/>
	<path class="st9" d="M315.14,25.08H84.87c-33.02,0-59.79,26.76-59.79,59.78v230.27c0,33.02,26.77,59.79,59.79,59.79h230.27
		c33.02,0,59.78-26.76,59.78-59.79V84.86C374.92,51.85,348.15,25.08,315.14,25.08z M200,333.95c-23.44,0-46.44-6.2-66.81-17.98
		L81,333.95l10.72-55.27C74.91,255.64,66.05,228.53,66.05,200c0-73.86,60.09-133.95,133.95-133.95
		c73.86,0,133.95,60.09,133.95,133.95C333.95,273.86,273.86,333.95,200,333.95z"/>
</g>
</svg>
